<svg xmlns="http://www.w3.org/2000/svg" xmlns:xlink="http://www.w3.org/1999/xlink" zoomAndPan="magnify" preserveAspectRatio="xMidYMid meet" version="1.0" viewBox="126.1 116.58 104 119.25"><defs><g/></defs><g fill="#9b005a" fill-opacity="1"><g transform="translate(230.099975, 116.617814)"><g><path d="M -59.230469 92.464844 L -44.316406 50.847656 L -22.15625 112.777344 C -22.015625 113.34375 -21.449219 113.628906 -20.738281 113.628906 L -1.421875 113.628906 C -0.285156 113.628906 0.285156 112.777344 -0.140625 111.921875 L -42.894531 0.710938 C -43.460938 -0.285156 -45.167969 -0.285156 -45.59375 0.710938 L -81.101562 92.464844 Z M -59.230469 92.464844 "/></g></g></g><g fill="#fffcfe" fill-opacity="1"><g transform="translate(124.097019, 235.82937)"><g><path d="M 8.597656 -17.5 L 2 -17.5 L 2 0 L 8.597656 0 C 13.75 0 17.472656 -3.675781 17.472656 -8.75 C 17.472656 -13.824219 13.75 -17.5 8.597656 -17.5 Z M 8.523438 -3.5 L 5.773438 -3.5 L 5.773438 -13.972656 L 8.523438 -13.972656 C 11.523438 -13.972656 13.597656 -11.847656 13.597656 -8.75 C 13.597656 -5.699219 11.523438 -3.5 8.523438 -3.5 Z M 8.523438 -3.5 "/></g></g></g><g fill="#fffcfe" fill-opacity="1"><g transform="translate(142.619086, 235.82937)"><g><path d="M 5.773438 -3.5 L 5.773438 -7.097656 L 11.847656 -7.097656 L 11.847656 -10.523438 L 5.773438 -10.523438 L 5.773438 -14 L 12.5 -14 L 12.5 -17.5 L 2 -17.5 L 2 0 L 12.773438 0 L 12.773438 -3.5 Z M 5.773438 -3.5 "/></g></g></g><g fill="#fffcfe" fill-opacity="1"><g transform="translate(156.591874, 235.82937)"><g><path d="M 13.097656 -17.5 L 8.800781 -5.125 L 4.375 -17.5 L 0.199219 -17.5 L 7.023438 0 L 10.597656 0 L 17.222656 -17.5 Z M 13.097656 -17.5 "/></g></g></g></svg>