<svg xmlns="http://www.w3.org/2000/svg" enable-background="new 0 0 100 100" viewBox="0 0 100 100"><path d="M89,36h-6v-8c0-4.41-3.59-8-8-8H13c-4.41,0-8,3.59-8,8v34c0,4.41,3.59,8,8,8h23.56l-1.2,6H31c-1.1,0-2,0.9-2,2
	c0,1.1,0.9,2,2,2h26c1.1,0,2-0.9,2-2c0-1.1-0.9-2-2-2h-4.36l-1.2-6H65v4c0,3.31,2.69,6,6,6h18c3.31,0,6-2.69,6-6V42
	C95,38.69,92.31,36,89,36z M39.44,76l1.2-6h6.72l1.2,6H39.44z M65,66H13c-2.21,0-4-1.79-4-4v-2h56V66z M65,42v14H9V28
	c0-2.21,1.79-4,4-4h62c2.21,0,4,1.79,4,4v8h-8C67.69,36,65,38.69,65,42z M91,74c0,1.1-0.9,2-2,2H71c-1.1,0-2-0.9-2-2v-3h22V74z
	 M91,67H69V49h22V67z M91,45H69v-3c0-1.1,0.9-2,2-2h18c1.1,0,2,0.9,2,2V45z"/></svg>