<?xml version="1.0" encoding="utf-8"?>
<!-- Generator: Adobe Illustrator 25.0.1, SVG Export Plug-In . SVG Version: 6.00 Build 0)  -->
<svg version="1.1" xmlns="http://www.w3.org/2000/svg" xmlns:xlink="http://www.w3.org/1999/xlink" x="0px" y="0px"
	 viewBox="0 0 2793 2793" style="enable-background:new 0 0 2793 2793;" xml:space="preserve">
<style type="text/css">
	.st0{display:none;}
	.st1{display:inline;stroke:#FFFFFF;stroke-miterlimit:10;}
	.st2{fill:#FFFFFF;}
	.st3{fill:#FF0000;}
	.st4{fill:#010101;}
	.st5{fill:#7F577D;}
	.st6{fill:#060505;}
	.st7{fill:#070505;}
	.st8{fill:#747272;}
	.st9{fill:#D42488;}
</style>
<g id="Capa_2" class="st0">
	<rect class="st1" width="2792" height="2792"/>
</g>
<g id="Capa_3">
	<path class="st2" d="M1098.6,858.3l-91.6,70.7v106l-41.9,133v206l-22.9,206.7L929,1724.5l-11.7,62.4l-116.5,201.6l-36.7,81.3
		l-3.6,52.9l7.6,36.9l17.3,27.1l31.1,14.2l31.1,4.4l66.2-1.7l34.2-4.5l22.7,6.2l916.4,28l12-6.6l38.2,2.3l44.4,4.3l56-10.2l27.1-16
		l15.9-22.4l4.6-70l-12.9-45.3c0,0-29.6-63.6-29-64.9s-40.3-65.3-40.3-65.3l-46.2-84l-7.1-71.1c0,0,8-76,8-77.3
		c0-1.3-20.9-76.9-21.3-80c-0.4-3.1,3.2-69.8,3.2-69.8l15.5-98.7c0,0,4.4-45.8,1.3-54.7c-3.1-8.9-20-73.3-21.8-78.2
		c-1.8-4.9,3.3-108,5-117.8c1.7-9.8,6.1-78.2,5.7-90.2s-0.9-58.6-1.8-62c-0.9-3.4-31.6-86.4-33.3-86.2c-1.8,0.2-62-60.7-67.6-81.6
		c-5.7-20.9-11.5-51.1-12.8-70.2c-1.3-19.1,0-55.1,0.4-63.6c0.4-8.4-20.9-44.9-20.9-44.9l-60-60l-69.8-18.2c0,0-33.5,18.7-35,20.9
		s-46.4,25.8-48.1,26.2c-1.8,0.4-43.1-48.9-44.9-52.2c-1.8-3.3-47.6-30.9-47.6-30.9s-102.8-20-107.6-20.4
		c-4.8-0.4-114.6,3.6-116.4,4.4c-1.8,0.9-78.7,54.7-79.6,56.4s-29.3,31.6-30.2,33.3c-0.9,1.8-60,156.9-60.4,159.6
		C1109.4,830.8,1098.6,858.3,1098.6,858.3z"/>
	<path class="st2" d="M2246.2,2035.8l28.3,82.4l36,60.1l36.7,31.7l33.8,18.7c0,0,28.4,12.4,29.6,12.7c1.2,0.3,33.5,4.1,33.5,4.1h24
		l21.3-8.9l46.2-27.6l24.9-20.4l35-3.6l40-11.3l22.8-15.7c0,0,20.4-17.2,21.6-17.5c1.2-0.3,7.1-17.2,7.7-18.4c0.6-1.2-2.7-13-3-14.8
		c-0.3-1.8-10.1-11.3-11.3-12.4c-1.2-1.2-27.6-11.6-33.2-11.6s-31.8,1.5-31.8,1.5l10.4-33.2l-0.9-20.7h-19.3L2246.2,2035.8z"/>
	<polygon class="st2" points="95.1,1884.7 92.4,1969.7 125.6,1970.9 134.6,2009.1 157.9,2191.1 325.9,2194.9 361.3,2036.7 
		381,1972.7 403.2,1970.6 414.2,1896.9 409.2,1892.1 	"/>
	<path class="st2" d="M117,1755.1l45.2-20.6c0,0,20.3,1,21.6,1.8c1.3,0.7,14.1,11.6,14.1,11.6s3.9,12.3,3.1,12.9
		c-0.7,0.6-12,14.2-12.4,14.2s-30.8,1.3-31.3,1.3s-46.4-16.3-46.4-16.3L117,1755.1z"/>
	<path class="st2" d="M153.9,1678.3c0.7,0.1,46.7,11.4,47.2,11.4c0.5,0,23.9-3.4,25.4-3.9c1.5-0.4,30.5-17.2,30.5-17.2
		s4.9-10.4,5-14.2c0.1-3.9-0.4-10.8-4.7-12.4s-33.9-10.2-34.7-10.4c-0.7-0.1-26.1-1.6-27.4-1.2c-1.3,0.4-26.1,7.6-26.5,7.9
		c-0.4,0.3-41.3,23.3-41.5,23.7C127.1,1662.5,153.9,1678.3,153.9,1678.3z"/>
	<path class="st2" d="M271.4,1610.2l27.1-30.5c0,0,19.9-7.1,24.1-7.6c4.2-0.4,23.9,1,23.9,1s28.7,11.4,29.3,11.9s12.3,9,12.3,9
		s4.9,3.4,3.7,5.3s-8.7,12-11.3,13.6c-2.5,1.6-22.1,16.3-25.8,17.4c-3.7,1.1-19,5.6-22.2,5.6c-3.3,0-28.1,1.3-29.3,0
		c-1.2-1.3-10.1-5.8-13.5-8.1S271.4,1610.2,271.4,1610.2z"/>
	<path class="st2" d="M264.4,1572c0,0-27.1,7.6-29.6,7.8c-2.5,0.1-26.5-2.2-30.5-2.9s-28.1-7.6-28.6-8.2c-0.4-0.6-7.1-5.5-9.5-7.1
		c-2.4-1.6-10.1-6.8-10.1-9s6.2-6.2,14.1-11.5c7.9-5.3,18.2-11.7,24.5-12.8c6.2-1.1,20.3-1.9,22.8-2.5c2.5-0.6,11.3-0.9,15.7-1.2
		c4.4-0.3,10.5-0.6,12.3,0.9c1.8,1.5,14,8.7,14,8.7s3.1,4.7,4.3,8.6c1.1,3.9,3.5,7.7,3.4,9.7C266.9,1554.6,264.4,1572,264.4,1572z"
		/>
	<path class="st2" d="M309,1694.8c0.7-1.1,37.6-19.3,39.8-20.5c2.2-1.1,33.3-6.7,34.2-7.1c0.9-0.4,32.9,6.2,34,6.7
		s17.6,7.3,19.1,10.3c1.6,3,6,6.8,5.6,9c-0.4,2.2,3.1,7.6-6.2,11.8c-9.3,4.2-41.1,15.3-43.4,15.2c-2.3-0.1-19.9,3-21.7,2.8
		c-1.8-0.2-26-2.7-26.9-2.8c-0.9-0.1-24.7-19.6-24.7-19.6L309,1694.8z"/>
	<path class="st2" d="M312.3,1774.6c0,0,26.7-10.7,28-10.9c1.3-0.2,10-0.4,17.3,0c7.3,0.4,28,4.9,29.1,5.3s8.9,7.1,12.4,8.7
		c3.6,1.6,16.4,8.9,16.4,8.9s-0.9,6.7-5.1,8.9c-4.2,2.2-17.3,9.6-25.8,11.8c-8.4,2.2-17.1,4-21.8,5.1c-4.7,1.1-7.1,1.6-9.8,1.3
		c-2.7-0.2-14.7-2.8-18.7-3.7c-4-0.9-9.6-2.7-10.4-4.1c-0.9-1.3-8-5.6-8-5.6L312.3,1774.6z"/>
</g>
<g id="Capa_1">
	<path class="st2" d="M1990.1,1890c-0.3-4.3-1.2-8.4-1.8-12.6c-2.3-8.9-3.3-18.7-3.1-29.5c0.3-14.9,2.9-29.3,5.7-44.7l0.2-1.2
		c4.8-26.2,4-49.6-2.2-71.5c-3.4-12.1-6.9-23.8-11.4-35.1c-9.2-23.1-13.4-48-12.8-76.1l0.1-7c0.4-19.6,0.8-40,2.9-59.7
		c2.3-21.5,6.1-38.6,11.8-53.8c2.6-7.1,5-14.2,7.2-21.2l1.3-4c6.7-20.6,7.5-42.3,2.4-64.5c-3.2-13.9-7.9-28-15.1-45.9
		c-5.9-14.5-10.2-27.9-13.2-41c-6.7-29-5.3-54.7,4.3-78.5c2.6-6.3,4.7-12.7,6.7-18.9c1.2-3.7,2.5-7.6,3.8-11.3
		c6.8-19,10-39.7,9.5-61.5c-0.1-3.2-0.1-6.4-0.2-9.6c-0.4-18.5-0.8-37.6-2.7-56.5c-2.4-24.3-7.4-45.9-15.3-66.1
		c-7.7-19.6-17.2-38.9-28.9-59.1c-4.7-8-9.3-16-14-24c-10.5-18-21.4-36.7-32-55.1c-7.7-13.3-13.6-27.3-17.9-38.1
		c-7.8-19.6-10.7-39-8.7-59.4c1.9-19.9,1.1-37.6-2.5-54.1c-5.7-26.4-18.6-49.9-39.7-71.6c-16-16.5-35.7-29-60.3-38.2
		c-23.5-8.8-45.6-13-67.5-13c-9.6,0-19.3,0.9-28.7,2.5c-17.7,3.2-32.7,9.8-45.8,20.3c-4.3,3.5-8.2,6.9-11.7,10.5
		c-4.6-6.6-9.4-13.3-15.2-19.5c-27.9-29.9-61.2-53.3-99.1-69.4c-29-12.3-60.9-20.3-97.6-24.3c-11.8-1.3-23.8-2-35.7-2
		c-20.9,0-42.1,2.1-62.9,6.1c-45.3,8.8-85.6,26.3-120,51.9c-13.5,10.1-25.3,21.8-35.2,34.9c-20.8,27.6-33.5,59.6-38.8,97.8
		c-1.4,10.5-2.3,21.1-3.1,31.3c-0.5,5.9-1,11.9-1.6,17.9c-1.7,16.8-4.2,30.5-7.9,43.1c-4.2,14.3-11.8,25.8-23.4,35.2
		c-10.6,8.6-20.4,15.3-29.9,20.4c-5.3,2.9-10.7,5.7-16,8.5c-7.1,3.7-14.3,7.6-21.5,11.5c-10.3,5.6-22.3,12.8-32.4,23.5
		c-14.9,15.7-20.1,34.3-15.4,55.2c2.2,9.9,5.3,19.4,8.3,28.6c1.6,4.8,3.2,9.8,4.6,14.7c0.8,2.7,1.6,5.3,2.4,8
		c2.4,7.8,4.6,15.2,6.3,22.8c3.8,17,0.3,29.8-11.2,40.2c-3.7,3.4-7.6,7.4-12.2,12.5c-26.1,29.5-34.3,63.2-24.3,100.3
		c3.7,13.8,8.7,27.6,15.2,42.4l0.2,0.5c3.1,7.1,6.1,13.8,8.3,20.7c5.3,16.7,1.4,30.3-12.2,43c-2.4,2.2-4.8,4.4-7.4,6.7
		c-2.6,2.3-5.4,4.7-8,7.2c-8.5,7.9-15.8,16.9-21.7,26.6c-11.5,18.9-15.1,38.2-10.8,57.4c1.8,7.9,4.5,15.6,8.1,22.8
		c2.6,5.1,5.3,10,8,14.8c0.7,1.2,1.4,2.5,2.1,3.7c7.3,13,12.2,23.2,16,33c6.7,17.4,6.4,33.6-0.8,49.5c-2.3,5-4.8,10.5-7.7,16.8
		c-1.4,3-2.8,5.9-4.2,8.9c-2.9,6.2-6,12.6-8.7,19.1c-10.5,24.9-13.5,50.1-8.9,75c0.4,2.2,0.8,4.4,1.2,6.7c0.8,4.6,1.6,9.3,2.6,14
		c3.2,14.7,2.1,27.7-3.4,39.6c-1.7,3.7-3.3,7.9-5.1,13.1c-7.6,22.5-5.1,43.3,7.5,61.9c1.8,2.7,3.2,5,4.2,7.2c0.2,0.3,0.3,0.7,0.4,1
		c0,0.1,0.1,0.3,0.1,0.5c3,1.4,6.1,2.7,9.2,4c2.4,1,4.9,2,7.3,3.1c0.1-0.1,0.2-0.2,0.3-0.3c2.8-4.5,1.4-1.7,0.2-0.2
		c-0.1,0.1-0.1,0.1-0.2,0.2c-0.1,0.1-0.1,0.2-0.2,0.4c0,0,0,0,0,0c0.4-0.6,0.8-1.1,1.2-1.6c1.1-1.6,2.2-3.2,3.2-4.9
		c0.8-1.3,1.5-2.6,2.1-3.9c0-0.1,0.1-0.2,0.1-0.3c2.5-10.1,4.7-20.2,6.4-30.4c0.6-3.4,1.1-6.9,1.7-10.3c0.2-1.6,0.5-3.1,0.7-4.7
		c0-0.3,0.1-0.8,0.2-1.3c0.8-5,1.2-10,1.7-15c1.2-11.6,2.1-23.2,2.7-34.8c2.3-41.5,1.5-83.1,1.3-124.7c0-0.5-0.1-1-0.1-1.5v-16
		c0-12.4,9.6-21.8,21.4-23.3c-0.4-4.4-0.7-8.9-1-13.3c-3.8-2.1-7.2-5.4-9.2-8.9c-3.4-5.9-3.4-11.6-2.4-18.1
		c4.2-26.7,11.5-52.7,18.2-78.8c3.3-12.9,6.5-25.9,9-39c0.6-3.3,1.2-6.6,1.8-9.9c0.3-1.8,0.6-3.6,0.8-5.4c0-0.1,0-0.2,0-0.3
		c0.7-6.5,1.4-13,1.8-19.6c2.5-45.9-8.4-91.2-9.7-137c-0.3-11.4,0-22.9,1.3-34.3c1.3-11.5,2.8-23.5,6.8-34.4
		c3.5-9.6,8-18.4,13.8-26.7c4.6-6.6,9.5-12.9,13.7-19.7c1.2-2,2.4-3.9,3.4-6c0.4-0.7,0.7-1.4,1-2c0.3-1.3,0.5-2,0.7-2.5
		c0.9-2.9,2.1-5.7,2.7-8.7c-0.1-0.5,0.1-1.6,0.2-2.2c0.1-1,0.2-1.9,0.2-2.1c0-1.8,0-3.6-0.2-5.4c-1.3-2.9-0.7-3.6-0.2-2
		c0-0.2,0-0.4-0.1-0.5c-0.4-2.4-1-4.9-1.6-7.3c-5.3-21.9-13.4-43-9.6-65.9c0.4-2.7,1.1-5.3,2-7.8c0.8-2.3,2-4.7,2.9-6.9
		c-3.2,8,0.6-1.4,1.1-2.5c1.9-4.4,4.2-8.5,6.8-12.5c6.2-9.6,13.6-18.5,21.4-26.8c13.5-14.3,28.7-26.8,43-40.2
		c3.9-3.7,8.6-5.8,13.5-6.5c0.6-0.6,1.2-1.3,1.8-1.9c1.1-1.2,2.2-2.5,3.3-3.8c0.4-0.6,0.9-1.2,1.3-1.8c4.8-6.7,9-13.8,13.3-20.8
		c4.6-7.5,10-14.5,14.5-22c2.6-4.4,5-8.9,7.2-13.6c0.2-0.5,0.7-1.4,1.1-2.3c0.9-1.9,1.6-3.9,2.3-5.9c3.3-8.6,6.2-17.4,9.1-26.1
		c10.1-30.3,19-61.4,31.4-90.9c13.2-31.3,32.6-60.6,63.4-76.9c33.1-17.5,71.7-22.7,108.7-19.6c36.3,3,74.6,11.7,106.8,29.4
		c9.1,5,17.7,10.9,26.1,17.1c8.7,4,17.4,8.2,26,12.5c10.8,5.4,21.6,10.6,32.1,16.5c4.8,2.7,9.6,5.5,14.4,8.1
		c1.7,0.9,3.7,2.2,5.7,3.1c0.1,0,0.8,0.1,2,0.5c1.3,0.4,2.6,0.8,3.9,1.2c7.8,2.2,13.3,8,15.7,15c0.1,0,0.2,0.1,0.3,0.1
		c1.6,0.2,3.2,0.3,4.7,0.4c4.1,0.3,8.2,0.4,12.3,0.3c2.5-0.1,5-0.5,7.5-0.5c-0.6,0-1,0-1.5,0c-1.7,0.1-2.9,0,0,0
		c0.8,0,1.7-0.1,2.4-0.2c1.8-0.4,3.6-0.8,5.4-1.4c0.3-0.1,0.6-0.2,0.9-0.3c1.5-1.5,4.7-2.6,6.4-3.7c0.6-0.4,1.2-0.9,1.8-1.4
		c3.1-2.7,6.3-5.4,9.4-8c9.3-7.6,18.4-13.9,30-17.6c21.6-7,44.6-0.8,63.9,9.5c8,4.3,15.6,9.5,22.9,15c4.3,3.2,8.7,6.5,12.9,9.9
		c13.7-6.5,31.3-3.1,41.6,8c9,9.7,11.6,22.2,13.2,34.9c0.5,4.1,0.8,8.3,1,12.5c0.2,2.8,1,6.2,0.7,9c0.1,1.1,0.2,2.2,0.3,3.3
		c0,0.4,0.1,1.3,0.1,2.1c0.2,2.7,1,5.4,1.6,8c1.4,6.5,3.1,12.9,5.1,19.2c8.6,28,20.8,55,24.2,84.4c0.5,3.9-0.5,7.6-2.3,10.8
		c4.6,7.1,8.5,14.7,12.6,21.8c5.8,10.2,11.6,20.1,16.6,30.8c5.3,11.1,10.7,22.1,16.5,33c10.1,19,22.3,36.8,30.7,56.7
		c9.4,22.3,11.4,46.2,12.3,70.1c1.9,48-4,95.9-10.4,143.4c-1.5,11.4-3.2,22.8-4.8,34.2c-0.9,6.1-1.7,12.2-2.5,18.3
		c0,0.2-0.1,0.4-0.1,0.7c6.2,15.7,12.5,31.4,17.4,47.5c2.6,8.7,4.9,17.4,6.5,26.3c1.7,9.1,3.5,18.7,3.6,28c0,7.6-0.9,15.3-1.3,23
		c-0.3,5.5-0.5,10.9-0.5,16.4c0.3,0.5,0.6,1,0.9,1.5c6,9.9,8.7,21.6,8,33.1c-0.6,9.8-5.6,17-12.9,20.6c0.6,9.9,1.1,19.9,0.8,29.8
		c-0.3,13.8-1.7,29.8-7.5,43.2c1.3,15.4,1.5,30.8,1.8,46.2c0.3,17,1.6,33.9,2.9,50.8c0.6,8.8,1.2,17.5,1.9,26.3
		c0.3,4,0.7,8,1.2,11.9c0,0,0,0,0,0c0,0,0,0,0,0c0,0.2,0,0.4,0.1,0.6c0,0.2,0,0.4,0.1,0.5c0.2,0.7,0.4,1.5,0.4,1.7
		c0.4,1.8,0.8,3.6,1.2,5.4c2.3,9.5,4.4,19,4.7,28.8c0.2,8.8,0,17.6-0.3,26.4c-0.5,17.1-1,34.2,0.8,51.3c1.2,10.9-7.9,19.6-17.7,22.5
		c11.8,18.9,23.7,37.7,34.1,57.5c2.1,4.1,3.1,8.3,3,12.5c3.5,5.3,7.1,10.5,10.8,15.6c1.4,1.9,2.8,3.8,4.2,5.7
		c0.7,0.9,1.4,1.9,2.1,2.8c2.6,3.5-0.2-0.1-0.5-0.6c1.3,2.7,3.8,5.4,6.1,7.8c0.3-1.6,0.5-3.2,0.8-4.7c-0.3-1.7-0.6-3.3-0.8-5
		C1991.3,1908.4,1990.7,1899.2,1990.1,1890z"/>
	<path class="st3" d="M1867.9,1571.7c0,2.1,0.1,3.3,0.2,3.6c-0.1-1.2-0.1-2.3-0.2-3.5C1867.9,1571.9,1867.9,1571.8,1867.9,1571.7z"
		/>
	<polygon points="1517.8,767.6 1517.8,767.6 1517.8,767.6 1517.8,767.6 	"/>
	<polygon points="1498.1,785.1 1498.1,785 1498.1,785 1498.1,785 1498.1,785.1 	"/>
	<polygon points="1515.6,769.8 1515.5,769.8 1515.5,769.8 	"/>
	<polygon points="1519.9,765.5 1519.9,765.5 1519.9,765.5 1519.9,765.5 	"/>
	<polygon points="1515.5,769.8 1515.5,769.8 1515.5,769.8 1515.5,769.8 	"/>
	<path d="M1308.8,665.2c0.3-0.7,0.6-1.5,1-2.2c0,0,0.1,0,0.1,0c0,0-0.1-0.1-0.1-0.1l-0.6-0.4c0,0-0.7,0.2-0.7,0.2c0,0,0,0,0,0
		c0.3,0.3,0.5,0.7,0.8,1C1309.1,664.2,1309,664.7,1308.8,665.2z"/>
	<path d="M1519.9,765.4C1519.9,765.4,1519.9,765.4,1519.9,765.4L1519.9,765.4z"/>
	<path d="M1308.6,665.6c0.1-0.1,0.1-0.3,0.2-0.4C1308.7,665.3,1308.7,665.5,1308.6,665.6z"/>
	<path d="M1437.2,628.5l-0.2-0.8c-0.3,0.2-0.6,0.5-0.8,0.7C1436.5,628.4,1436.9,628.5,1437.2,628.5z"/>
	<polygon points="1308.4,662.7 1308.4,662.7 1308.4,662.7 	"/>
	<path d="M1522,763.2L1522,763.2C1522.1,763.2,1522,763.2,1522,763.2z"/>
	<polygon points="1513.4,772 1513.4,772 1513.4,772 1513.4,772 	"/>
	<polygon points="1812.3,1356.6 1812.3,1356.6 1812.3,1356.6 1812.3,1356.6 	"/>
	<polygon points="1520,765.5 1520,765.5 1519.9,765.4 	"/>
	<path d="M1286.9,685c-0.1-0.1-0.2-0.3-0.2-0.3C1286.7,684.8,1286.9,685,1286.9,685C1286.9,685,1286.9,685,1286.9,685z"/>
	<polygon points="1286.7,684.8 1286.7,684.8 1286.7,684.8 	"/>
	<path d="M1274.5,700.3c0,0-0.1,0-0.1,0c0,0,0,0,0,0C1274.5,700.3,1274.5,700.3,1274.5,700.3z M1375.1,865.6l-0.1,0.2
		C1374.9,865.8,1375.1,865.6,1375.1,865.6C1375.1,865.6,1375.1,865.6,1375.1,865.6z"/>
	<polygon points="1379.6,863.5 1379,863.7 1379.6,863.5 	"/>
	<path d="M1515.3,1239.1c-3-3.8-6.9-6.4-11.2-8.5c-6.9-3.3-14.1-5.7-21.6-7.2c-22.6-4.5-45.4-5.1-68.2-1.8
		c-10.4,1.5-20.7,3.8-30.3,8.3c-4.6,2.2-9,4.7-12.3,8.7c-4.7,5.7-4.8,12-0.3,17.9c2,2.6,4.6,4.6,7.4,6.3c4.7,2.9,9.7,4.9,14.9,6.5
		c16.1,4.8,32.6,6.6,51.1,6.5c9.2,0.5,20.1-0.8,30.8-2.5c9.7-1.5,19.2-3.8,28-8.2c4.6-2.3,8.9-4.9,12-9.1
		C1519.5,1250.8,1519.4,1244.3,1515.3,1239.1z M1413.1,1257.8c-0.5,2.8-2.3,4.5-5,5c-1.8,0.3-3.6,0.3-4.9,0.4
		c-5.2-0.3-10,0-14.4-2.3c-1.8-0.9-2.8-2.3-3.1-4.2c-0.3-2.4,1-4.1,2.9-5.4c0.3-0.2,0.6-0.5,0.9-0.6c6.8-1.9,13.6-2,20.2,0.8
		C1412.4,1252.7,1413.6,1255.2,1413.1,1257.8z"/>
	<path class="st4" d="M1606.5,1047.2c-7.1-13-20-15.9-32-7.3c-4.2,3-7.6,6.8-10.3,11.1c-10.5,16.6-14.1,34.7-11.3,54.1
		c0.5,3.5,1.7,7,3.2,10.3c7.2,16.1,21.9,19.4,35.3,8c4.8-4.1,8.4-9,11.3-14.5c6.2-11.7,9.4-24.2,9.2-38.2
		C1612.1,1062.8,1610.6,1054.7,1606.5,1047.2z M1564.3,1100c-2.4,0.1-4.8-2.3-5-4.7c-0.2-3.2,2.4-6.1,5.9-6.5
		c1.9-0.2,4.3,1.6,4.8,3.6C1570.7,1095.9,1567.8,1099.9,1564.3,1100z M1597.9,1073.2c-0.5,8-2.1,15.8-6.1,22.9
		c-2,3.6-4.7,6.7-9.3,6.4c-3.7-0.2-7.1-4.1-8.2-9.1c-0.4-1.8-0.5-3.6-0.7-5c0.7-9.6,2.6-18.4,9.5-25.1c4.7-4.6,9-3.9,12.3,1.8
		C1596.9,1067.5,1598,1070.2,1597.9,1073.2z"/>
	<path d="M986.8,1424.5c0.1-0.2,0.3-0.3,0.4-0.5C987.1,1424.2,986.9,1424.3,986.8,1424.5z"/>
	<path class="st5" d="M1705.2,1099.6c-1.7,2.2-4,1.9-6.3,1.6c0.2-2.3,0.2-4.5,1.9-6.3C1701.4,1097.2,1701.8,1099.7,1705.2,1099.6z"
		/>
	<path class="st6" d="M1470.8,1153.8c-3.6,0-7.2,0.1-10.9,0c-15.3-0.3-24.1-10.1-22.8-25.3c0.5-6.2,2.8-11.9,5.3-17.6
		c3.4-7.5,8.2-14.5,9.6-22.9c0.3-1.6,1.8-2.2,3.3-2.2c2,0,3.3,1,4.1,2.9c0.7,1.8,0.3,3.5,0,5.3c-0.9,5.1-3.5,9.5-5.6,14.1
		c-2.4,5.3-5.2,10.4-6.3,16.1c-0.3,1.8-0.9,3.5-1.1,5.3c-0.9,8.6,3.5,14.6,12.1,14.6c11.5,0.1,23.2,1.4,34.6-1.8
		c0.7-0.2,1.4-0.5,2.1-0.7c3.8-0.8,6.5,0.2,7.2,2.7c0.6,2.4-1.2,5.2-4.8,6.4c-5.9,1.9-11.9,3.1-18.1,3
		C1476.6,1153.8,1473.7,1153.8,1470.8,1153.8C1470.8,1153.8,1470.8,1153.8,1470.8,1153.8z"/>
	<path class="st7" d="M1580.6,951.4c13.9,0.4,25,3,35,9.8c6.4,4.3,12.2,9.2,17.5,14.7c1.5,1.5,2.9,3.3,3.8,5.2
		c0.9,1.7,0.3,3.5-1.2,4.9c-1.5,1.3-3.3,1.8-4.9,0.5c-1.7-1.3-3.1-3-4.8-4.4c-4.7-4-9.2-8.3-14.2-11.9c-14.4-10.2-30.3-11-46.8-6.4
		c-4.6,1.3-8.8,3.4-12.5,6.5c-1.4,1.1-2.5,2.7-4.5,2.8c-1,0-2.2-0.1-3.1-0.6c-1.4-0.8-1.6-2.3-1.4-3.8c0.3-2.4,2-3.8,3.6-5.2
		c5.6-4.8,12.3-7.9,19.3-9.7C1571.8,952.3,1577.3,951.9,1580.6,951.4z"/>
	<path class="st4" d="M1318.9,1035c-2.7-5.6-6.5-10.5-11.7-14.1c-6.6-4.6-14.9-4.3-21.2,0.6c-3.8,3-6.3,6.9-8.3,11.2
		c-3.8,8.1-4.9,16.6-4.8,25.9c-0.1,10.6,2,21.1,7,31c2.5,4.9,5.7,9.3,10.1,12.6c8.4,6.3,18.2,5.4,25.4-2.2c3.8-4.1,6.3-8.9,7.8-14.2
		C1328,1068.4,1326.6,1051.4,1318.9,1035z M1290,1081.6c-2.6,0.2-5.5-2.5-5.6-5.3c-0.2-2.9,2.4-5.5,5.3-5.6c2.3,0,4.7,2.3,5,4.7
		C1295,1078.3,1292.6,1081.4,1290,1081.6z M1311.8,1073.1c-3.2,5.3-8.9,5.4-12.3,0.3c-1.2-1.8-1.9-3.9-2.4-6
		c-1.5-6.1-0.5-12.3,0.7-18.3c0.1-0.4,0.2-0.7,0.3-1c1.6-4.5,5.3-8,8.3-7.5c4.6,0.7,6.7,4.1,7.7,8.2c0.8,3.1,0.9,6.4,1.3,9.7
		C1315.3,1063.7,1314.5,1068.7,1311.8,1073.1z"/>
	<g>
		<path class="st2" d="M206.8,1879.2c0-0.7-0.1-1.5-0.1-2.2c-0.7-36.4-1.5-72.7-2.2-109.1c-0.1-3.3-0.2-6.5,0.9-9.7
			c1.9-5.4-0.1-9.9-3.2-14.3c-3.5-5-8.3-8-13.9-10c-8.8-3.1-17.9-2.9-27-1.6c-18.5,2.6-33.4,13.7-49.6,21.8
			c-2.6,1.3-2.8,5.7-0.7,7.7c1.8,1.7,3.9,3.2,6.1,4.4c11.5,6.4,23.9,10.8,36.7,13.3c11.9,2.2,23.9,1.9,35.1-3.9
			c1.8-0.9,3.6-2.7,6.1-1c0.1,1.7,0.3,3.5,0.3,5.3c0.4,19.6,0.9,39.3,1.3,58.9c0.3,13.1,0.5,26.2,0.7,39.3c0,2.2-0.2,3.3-1,4
			c3.8,0,7.6,0,11.3,0C207.2,1881.4,206.9,1880.5,206.8,1879.2z M186.8,1767c-2.1,3.6-19.9,6.1-27.6,3.7c-2.9-0.6-5.7-1.1-8.7-1.6
			c-1.5-0.6-3.3-0.6-4.8-1.3c-2-0.9-12.3-3.1-17.4-5.5c-3.6-3.6-3.3-4.9,1.7-8.4c1.1-0.3,9.1-4.7,12.5-6.6c0,0,0,0,0,0c0,0,0,0,0,0
			c3.8-1.3,31.9-8.6,35.4-6.9c1.7,0.4,3.6,0.3,5.2,1c1.4,0.6,2.7,1.2,4.2,1.6c3.2,0.9,8,5.3,8.5,8.7
			C196.8,1757.6,186.7,1767,186.8,1767z"/>
		<path class="st2" d="M267.5,1879.8c0-1.8,0-3.6,0-5.5c0.7-82.9,1.4-165.8,2.2-248.7c0-1.6-0.8-3.7,1.5-4.6c0.4,0.1,0.8,0.1,1,0.3
			c1.9,1.7,3.8,3.4,5.7,5.1c14.7,12.7,31.5,19,51.2,16.7c9.2-1.1,17.7-3.9,25.8-8.1c19.7-10,35.3-25.4,51.4-40
			c2.1-1.9,1.4-4.3-1.2-4.7c-13.1-1.9-25.1-7-36.8-13c-5.5-2.8-11.2-5.3-16.9-7.6c-14.5-5.7-29.1-5.6-43.6-0.2
			c-12.2,4.5-22.6,11.5-31,21.5c-1.1,1.3-2.1,3.2-4.1,1.7c0-8.5-0.4-16.9,0.1-25.2c0.6-10.3-2.7-19.3-7.5-28
			c-4.8-8.7-12-14.4-21.5-17.3c-10.7-3.3-21.5-3.1-32.3-0.9c-8.9,1.8-17.3,5.3-25.7,8.9c-10,4.3-20.2,8.2-30.9,10.4
			c-2.1,0.4-4.3,1-6.3,1.8c-5,1.9-5.7,6.5-1.8,10.3c1.3,1.2,2.8,2.4,4.3,3.3c13.6,8.4,27.1,17.1,42.1,22.8
			c20.8,8,42.2,10.8,63.8,2.2c0.9-0.4,2.1-0.2,3.2-0.3c0.9,13.6,0.2,49.8-1,58.6c-2.6,0.9-3.9-1.3-5.7-2.3
			c-7.6-4.4-15.5-8.1-24.1-9.9c-24.8-5.4-48.5-2.3-70.4,10.9c-11.5,6.9-22.5,14.7-33.8,22.1c-0.9,0.6-1.8,1.3-2.5,2.1
			c-2.5,2.5-2.2,6.4,0.7,8.5c4.2,3.1,9.1,4.5,13.9,6c13.5,4.3,27,8.5,40.6,12.5c26.1,7.8,51,5.2,74.4-9c1.2-0.8,2.5-1.5,3.7-2.2
			c1.5-0.8,3.1-0.2,3.2,1.3c0.1,1.8,0.2,3.6,0.2,5.4c-0.4,60.4-0.8,120.7-1.3,181.1c-0.1,5.7,1.3,11.7-1.1,17.2
			c3.6,0.1,7.2,0.2,10.8,0.3C267.6,1882.7,267.5,1881.5,267.5,1879.8z M276.2,1605.4c0.5-0.5,16.6-17.4,17.1-17.9
			c9.4-7.7,39.7-12.1,46.5-10.6c15.5,3.4,44.7,22.2,45.4,22.2c0.6,0.3,0.8,0.7,0.8,1.1c0,0.5-0.1,0.8-0.2,0.8
			c-1.6,2.8-7.7,6.4-9.1,7.9c-4,4.1-8.8,7.4-13.6,10.5c-0.8,0.5-6.6,4.1-6.7,4.1c-1.5,0.9-3,1.8-4.5,2.7c-5.8,3.9-22.5,7.9-23.8,8.1
			c-12.8,2.1-24.2-1.1-33.9-9.7c-3.5-3.1-17.3-10.1-17.7-12.6C275.9,1609.9,272.8,1607.8,276.2,1605.4z M258.3,1658.2
			c-2.8,3.7-8.2,9.7-15.3,14.1c-11.9,7.3-27.8,11.2-28.3,11.3c-6.7,0.9-13.5,0.7-20.2-0.2c-1-0.1-19.4-4.2-28.4-6.7
			c-1.2-0.3-19.6-3.8-26.2-9.3c-0.8-0.7,1-5.7,3.6-7.5c4.2-2.9,7.5-5.6,11.1-8.4c2.9-2.2,29.6-14.1,30.5-14.4c7.9-2.4,27-3.1,27.9-3
			c11.8,0.6,44.2,16,45.1,17.1C259.9,1653.1,259.9,1656.1,258.3,1658.2z M260.8,1562.4c-0.7,0.6-1.5,1.1-2.5,1.3
			c-4.8,3.1-8.2,6.5-14.5,9.3c-4.7,2.2-8.9,4.1-14.2,4c-9.8-0.3-19.2-2.6-28.7-4.5c0,0,0,0,0,0c0,0,0,0,0,0c-3.6-1.5-6.5-4.7-11-4.1
			c-1,0.1-2.2-1.4-3.3-2.1c-5.2-3.1-10.4-6.2-15.6-9.4c-0.3-0.5-0.8-0.9-1.4-1c-0.8-0.3-1.6-0.6-2.5-1c-1.3-0.6-2.6-1-3.8-1.8
			c-0.1,0-0.1-0.1-0.2-0.2c-0.6-0.7-0.2-1.9,0.7-2.1c0.2-0.1,0.4-0.1,0.5-0.1l60.5-21.3c17-2.4,26.7-2.5,33.7,14.8
			c0.6,1.4,1.4,1.3,2.8,4.2c0.1-0.1,1.5,3.1,1.6,3.3c0.1,0.3,0.2,0.6,0.3,0.8C264.4,1556.1,263.5,1559.9,260.8,1562.4z"/>
		<path class="st2" d="M317.4,1883.4c-0.2-1.8-0.2-3.6-0.2-5.4c0-20.7,0-41.5,0-62.2c0-2.1-0.5-4.3,0.8-6.3c0.4-0.1,0.8-0.2,1.1-0.1
			c0.7,0.2,1.3,0.5,1.9,0.8c15.9,9.3,32.9,10.5,50.6,7.3c19.1-3.5,35-13.7,51.1-23.5c3.4-2.1,3.3-6.6-0.4-9.1
			c-6.5-4.6-13.3-8.9-20.1-13c-8.1-4.9-16.6-9-25.7-11.7c-19.7-5.7-38.7-6-56.5,6.1c-0.5,0.3-1.3,0-2,0c-0.3-0.6-0.8-1.2-0.8-1.8
			c0-17.8,0-35.6,0-53.4c0-0.3,0.1-0.8,0.3-1c0.2-0.2,0.6-0.3,0.9-0.5c0.3,0,0.8-0.2,1-0.1c1.7,1.4,3.3,2.8,5,4.2
			c15.2,12,32.4,17.3,51.8,15.8c26.6-2.1,49.8-12.3,70.7-28.5c0.6-0.4,1.1-1,1.6-1.5c3.2-3,2.9-6.7-0.7-9
			c-9.2-5.9-18.1-12.1-27.2-18c-2.4-1.6-5.1-2.9-7.7-4.1c-12.8-6.2-26.1-8.5-40.2-6.7c-19.3,2.5-36.4,9.8-51,22.6
			c-2.5,2.2-4.1,3-7.2,0.4c-3.1-2.5-6.5-0.5-6.9,3.5c-0.3,3.2-0.3,6.5-0.3,9.8c0,58.2,0,116.4,0.1,174.5c0,2.9,0.1,5.8,0,8.7
			c-0.1,2-0.3,3.2-1,3.8c3.8,0,7.7,0,11.7,0C317.7,1884.5,317.5,1884,317.4,1883.4z M339.7,1766.8l26.1,0.5c4.2,0,13.7,1.6,19.6,6.2
			c0,0,17.9,8.2,19.2,9.3c0.3,0.3,0.6,0.7,0.8,1.3c2,4.6-0.1,10-4.6,12.3c-1.3,0.7-2.4,1.3-2.6,1.4c-5.4,3.9-16.1,6.7-18.6,7.8
			c-7.4,3.3-36.6,6.2-40.2,2.7c-5-1.9-21.3-12.5-21.3-12.5c0-1.4-0.5-15.9-0.5-15.9c0,0,0,0,0,0
			C323.8,1773.9,330.9,1768.8,339.7,1766.8z M324.3,1692.8C324.3,1692.8,324.3,1692.8,324.3,1692.8
			C324.3,1692.8,324.3,1692.8,324.3,1692.8c1.3-0.8,2.6-1.7,3.9-2.5c0,0,0,0,0,0c0.8-0.8,1.6-1.5,2.3-2.3h0c0.8-0.8,1.6-1.6,2.5-2.4
			c0,0,0,0,0,0c0,0,0,0,0,0c2.4-2.9,21.4-11.2,31.1-13c3.5-0.6,7-1.4,10.5-2.2h0c7.2-3.2,24.1,1.4,29.3,3.9
			c3.6,1.7,7.2,3.4,10.7,5.2c2,1,11.5,6.2,15.5,9.3c1.2,0.9,3.1,2.8,4.1,5.2c0.6,3.2-3.2,7-3.5,7c-2.9,2.9-12.4,3.9-12.4,4.3
			l-21.9,9.1c-1.3,0.6-16.6,4.8-21.2,5.4c-4.9,0.6-9.7,0.5-14.4-0.7c-1-0.2-2-0.4-3.1-0.5c-4.1-0.1-15.6-0.9-21.2-4.7
			c-1.6-1-3.1-4.2-3.1-4.2c-2.8-2.4-5.6-4.8-8.3-7.4C324,1701.6,320.5,1694.9,324.3,1692.8z"/>
		<path d="M134.7,1980.3c-0.2-1.4,0-2.8,0-4.6c1.7-0.3,3.1-0.7,4.5-0.8c19.5-0.6,227.5,1.4,234.8,2.3c-1.3,5.3-2.6,10.6-3.9,15.8
			c-16.1,62.6-32.2,125.1-48.5,187.6c-1.3,5.1-1.2,7.3-2.8,8.3c3.9,0,7.4,0,11.2,0c-0.1-0.1-0.3-0.2-0.4-0.3c0.6-3,1.2-6.2,2-9.3
			c15.1-58.7,30.3-117.4,45.5-176.1c2-7.7,4.2-15.4,6.1-23.2c0.6-2.6,2.1-3.6,4.6-3.6c4.4,0,8.7,0.1,13.1,0c6.5-0.2,7.7-1.1,8.5-7.3
			c3.1-23.4,6.2-46.8,9.2-70.3c1.2-9.3,0.5-9.9-9-10.2c-26.9-0.8-53.8-1.5-80.7-2.2c-2.9-0.1-5.7-0.1-8.6-0.4
			c-0.9-0.1-1.7-0.5-2.2-1.2c-3.9,0-7.8,0-11.7,0c-0.6,0.6-1.7,0.7-3.4,0.7c-10.2-0.3-20.4-0.5-30.5-0.9c-3.1-0.1-4.2-0.2-4.7-1.4
			c-3.6-0.2-7.2-0.3-10.8-0.3c-0.1,0.3-0.3,0.6-0.4,0.9c-5.8,1.2-11.6,0.3-17.4,0.2c-9.5-0.2-18.9-0.7-28.3-1.1
			c-1.3-0.1-2.4-0.4-3.1-1.1c-3.8,0-7.6,0-11.3,0c-0.6,0.5-1.7,0.6-3.2,0.6c-5.1,0-10.2-0.1-15.3-0.2c-26.5-0.7-53.1-1.5-79.6-2.1
			c-7.8-0.2-8.8,0.9-9.4,8.5c-0.1,1.1-0.1,2.2-0.1,3.3c-0.7,23.3-1.4,46.5-2,69.8c-0.3,12.6-0.2,12.6,12.6,12.7
			c6.5,0.1,13.1,0,19.6,0.2c4.7,0.1,5.4,0.9,6.2,5.7c0.1,0.4,0.1,0.7,0.1,1.1c3.6,24.4,7.2,48.9,10.8,73.3
			c5.8,39.2,11.5,78.4,17.2,117.6c0.6,4,1.3,8,0.9,12.6c3.7,0,6.9,0,10.4,0C154.7,2116.4,144.7,2048.3,134.7,1980.3z M107.1,1965.5
			c-2.5,0-5.1,0-7.6-0.1c-1.5-0.1-2.7-0.9-2.8-2.6c0-1.4,0-2.9,0-4.4c0.5-21.1,1-42.1,1.5-63.2c0-1.8,0.2-3.6,1.5-5.1
			c9.3-0.5,299,7.5,309.4,8.6c-1.7,13.4-3.4,26.4-5.1,39.3c-1.1,8.7-2.4,17.3-3.5,26c-0.2,1.8-1.7,3.1-3.5,3.2
			c-3.3,0.1-6.5,0.1-9.8,0.1c-74.1-0.5-148.2-1.1-222.4-1.6C145.6,1965.5,126.4,1965.5,107.1,1965.5z"/>
		<path d="M2499,2239.8c-0.1-0.2-0.2-0.5-0.2-0.9c0.8-0.5,1.6-1.1,2.5-1.5c21.5-9.5,40-23.1,56-40.2c2.8-3,6.6-4.8,10.6-5.1
			c22.6-1.5,44.5-6.7,65.5-15.3c13.8-5.7,26.8-12.9,38.2-22.7c5.5-4.8,10.5-10.1,14.3-16.4c10.3-17,6.7-33.5-9.8-44.4
			c-5.5-3.6-11.5-6.2-17.9-7.9c-10.6-2.9-21.3-4.4-32.3-4.4c-2.7,0-5.6,0.7-8.1-1.1c1.8-9.7,3.7-19,5.2-28.3c0.7-4.4,1.3-9,1-13.4
			c-0.4-5.4-4.5-9.7-9.8-10.4c-3-0.3-6-0.2-9-0.2c-108.4,0.4-216.7,0.8-325.1,1.2c-7.6,0-15.3-0.2-22.9-0.2c-3.6,0-7.2,0.2-10.7,1.6
			c-2.7,1.1-4.2,3-4,5.8c0.4,4.7,0.9,9.4,2,14c10.9,44.3,29.1,85.2,57.3,121.3c20.7,26.4,45.4,48.1,75.9,62.5c1.3,0.6,2.8,1,3.7,2.8
			C2420,2243.3,2459.8,2242.8,2499,2239.8z M2619.1,2090.5c14.7-0.2,29.2,1,43.2,6.4c3.9,1.5,7.6,3.4,10.8,6
			c9.5,7.5,11.5,16.2,6.3,27.2c-2.1,4.3-4.9,8-8.2,11.5c-4.5,4.8-9.6,8.9-15,12.5c-23.5,15.4-49.5,23.9-77.2,27.5
			c-1.4,0.2-2.9,0.3-4.3,0.3c-0.7,0-1.4-0.3-3-0.6c1.1-1.9,1.5-2.9,2.1-3.7c17.5-24,29.9-50.6,38.7-78.8c0.4-1.4,0.7-2.8,1.1-4.2
			C2614.4,2091.8,2616.1,2090.5,2619.1,2090.5z M2256.6,2054c-0.9-3.8-1.9-7.6-2.7-11.2c1.9-2.1,4.1-2.2,6.3-2.3
			c6.2-0.3,12.3-0.6,18.5-0.6c107.9-0.3,215.7-0.6,323.6-0.9c3.2,0,6.4,0,7.6,0c2.9,1,3.1,1.6,3.1,2.4c-1.2,15.7-1.5,12.7-13.9,12.9
			c-106.4,1.1-212.8,2-319.2,3c-6.2,0.1-12.3,0.2-18.5,0.3C2258.8,2057.6,2257.2,2056.5,2256.6,2054z M2392.7,2228.5
			c-19.9-7.7-37.5-19.1-53.4-33.1c-20.1-17.7-36.3-38.5-49.9-61.5c-11.1-18.9-19.8-38.7-26.8-59.4c-1.4-4.3-0.9-5.1,3.7-5.5
			c4.7-0.4,9.4-0.6,14.1-0.6c105.4-0.9,210.7-1.8,316.1-2.7c3.9,0,7.9-0.6,11.7,0.6c0.9,4.6-0.9,8.3-1.8,12.1
			c-6.4,27-16.3,52.7-30.7,76.5c-12.1,20.1-26.9,37.9-45.4,52.4c-20.7,16.3-43.9,26.9-70.1,30.2
			C2436.9,2240.2,2414.5,2236.9,2392.7,2228.5z"/>
		<path class="st8" d="M2792,2257.8c0-2.9,0.1-5.9,0.1-8.8c0.7,0,1.4,0.1,2,0.1c0,2.9,0,5.8,0,8.7
			C2793.4,2257.8,2792.7,2257.8,2792,2257.8z"/>
		<path class="st2" d="M2464.7,1931.7c1.5-10.1,0.5-18.4-3.1-26.1c-4.9-10.4-3.9-20.4,1.1-30.4c2.1-4.2,3.5-8.7,4.6-13.3
			c1-4.1,0.6-7.9-1.3-11.6c-0.8-1.6-1.7-3.2-2.5-4.9c-4.2-8.5-5.5-17.2-1.9-26.3c1.3-3.4,1.9-7,3.1-10.4c2.7-7.7,1.7-15-1.4-22.3
			c-2-4.7-3.9-9.4-5.7-14.1c-3.1-8.1-3.6-16.2-0.7-24.5c1.3-3.8,2.3-7.7,3.7-11.4c0.8-2,1.9-3.9,3.3-5.6c1.2-1.5,3.1-1.8,4.9-1.1
			c1.6,0.6,2.1,1.9,2.4,3.4c0.5,3.3-0.4,6.4-1.3,9.6c-5.2,18.8-5.4,18.9,2.5,36.5c5.3,11.8,6.8,23.6,2.1,35.9c-0.4,1-0.6,2.1-1,3.1
			c-3.8,9-3.4,17.5,1.8,26c4.5,7.2,4.9,15.1,2.1,23.1c-1.8,5.1-3.8,10.2-5.8,15.2c-2.2,5.6-3.3,11-0.5,16.8
			c6.1,12.6,5.8,26,4.5,39.5c-0.2,2.6-0.3,5.2-2.2,7.1c-0.9,1-2.3,2-3.6,2.1c-1.9,0.2-3.5-1.2-4.2-2.9c-0.7-1.6-1-3.5-1-5.3
			C2464.6,1936.7,2464.7,1933.4,2464.7,1931.7z M2398.1,1818c-3.3-3.3-4.2-7.6-4.6-11.9c-0.7-6.6-2.5-12.8-5.1-18.8
			c-3.7-8.3-4.8-16.8-1.7-25.4c2.7-7.4,1.5-14.3-1.4-21.2c-0.1-0.3-0.3-0.7-0.5-1c-7-11.8-7-24.1-2.8-36.8
			c2.6-7.9,2.1-15.7-0.3-23.6c-1.9-6.2-3.8-12.5-5.5-18.8c-2.4-9.2-1.2-18,3.3-26.4c0.5-0.9,1.2-1.8,1.9-2.5
			c0.5-0.4,1.5-0.8,1.9-0.5c0.9,0.5,1.9,1.2,2.3,2.1c0.4,0.9,0.4,2.2,0.2,3.2c-2.2,11.5,0.6,22.3,4.1,33.1c0.6,1.7,1,3.5,1.6,5.2
			c3.8,10.6,4,21.3,0.9,32.1c-0.8,2.8-1.5,5.6-2,8.5c-0.8,5.1-0.2,10.1,2.2,14.8c1.6,3.3,3,6.6,4.3,10c2.7,7.3,3.6,14.9,1.1,22.4
			c-2.6,7.6-2,14.9,1.3,22.2c2.4,5.3,4.2,10.8,4.8,16.7C2404.6,1807.9,2403.6,1813.7,2398.1,1818z"/>
		<path class="st2" d="M2349.8,1796.7c-1.8,9.3,0.7,17.6,5.3,25.2c6.2,10.4,7.2,21.2,2.9,32.4c-3,8-2.6,15.6,1.9,23
			c1.5,2.5,2.6,5.2,3.7,7.9c2.4,5.9,3.1,11.9,0.9,18.1c-1.4,4.1-2.5,8.4-3.8,12.5c-1.6,4.7-1.5,9,0.9,13.6c4,7.5,5.6,15.7,4.6,24.3
			c-0.5,4.1-1.7,7.8-5.1,10.5c-1.9,1.5-4.4,0.8-5.2-1.4c-1.1-2.8-1.2-5.7-0.8-8.6c1-7.5-0.4-14.5-4-21.1c-3.4-6.2-3.6-12.4-1.5-18.9
			c1.2-3.8,2.2-7.7,3.6-11.4c2.2-5.9,1.4-11.4-1.4-16.8c-1.5-2.9-2.9-5.8-4.2-8.8c-3-6.9-3.6-13.9-1.4-21.3
			c4.1-13.5,6.8-16-3.3-34.1c-7.4-13.3-4-26,2.5-38.4c0.2-0.4,1.3-0.7,1.9-0.6c0.6,0.1,1.4,0.7,1.5,1.1
			C2349.1,1788.2,2349.4,1792.6,2349.8,1796.7z"/>
		<path class="st2" d="M2530.5,1844.4c-1,9.1,0.6,17.1,4.9,24.6c2.9,5,2.9,10.4,1.4,15.8c-1.1,3.8-2.1,7.7-3.5,11.4
			c-1.1,3-0.8,5.6,0.8,8.3c0.9,1.6,1.7,3.2,2.4,4.9c1.9,4.5,2.5,9,0.8,13.8c-0.9,2.4-1.4,4.9-2.2,7.3c-1.1,3.4-0.9,6.2,1.8,8.9
			c7.5,7.7,5.9,16.5,2.4,25.3c-0.4,1-1,1.9-1.7,2.7c-1.5,1.7-3.4,2.8-5.8,2c-2-0.7-2.5-2.7-2.5-4.4c0.1-2.9,0.4-5.8,1-8.6
			c0.9-4.2,0.5-7.9-2.9-10.9c-5.3-4.8-5.5-10.7-3.5-17c0.3-1,0.7-2.1,1.1-3.1c2-5.7,2.6-11-1.1-16.5c-3.3-4.7-3.4-10.2-1.3-15.6
			c0.8-2,1.2-4.2,2-6.2c2.4-6.1,2.3-11.7-1-17.6c-4.9-8.7-5.1-17.9-0.7-27.1c1.4-2.9,2.4-6,3.8-9c0.2-0.4,1.2-0.5,1.8-0.6
			c0.9-0.1,1.3,0.4,1.4,1.3C2530.1,1837.8,2530.3,1841.4,2530.5,1844.4z"/>
		<path class="st2" d="M2295.7,2006.8c-3.5-2.7-4.8-6.1-5.1-9.8c-0.4-6.1-2.6-11.3-6.5-15.8c-4.4-5.2-5.3-11-2.5-17.2
			c0.7-1.6,1.3-3.4,2-5.1c1.6-3.6,1.2-7-1-10.3c-1.6-2.4-3.1-4.9-4.4-7.5c-4.4-8.9-4.8-18.1-1.4-27.5c0.5-1.4,1-2.9,2.8-2.7
			c1.6,0.2,2.4,1.5,3,2.8c1.7,3.3,2.9,6.7,2.8,10.4c-0.2,6.5,1.9,12.2,5.6,17.3c5.2,7.1,6.4,14.6,2.5,22.5
			c-2.6,5.3-1.8,9.4,1.8,13.9c3.9,4.9,5.9,10.8,6,17.2C2301.4,1999.7,2300.3,2003.7,2295.7,2006.8z"/>
		<path class="st2" d="M2585.5,1996c0.9-5.2-0.1-9.1-1.6-12.8c-0.7-1.7-1.5-3.3-2.4-4.9c-3.2-5.8-3.8-11.7-1.1-17.8
			c0.6-1.3,1.1-2.7,1.6-4c1.9-4.5,2.2-9.1,0.1-13.7c-1.6-3.3-2.3-6.9-2-10.6c0.1-1.4,0.7-2.8,1.3-4.1c0.7-1.7,3.7-2.1,4.5-0.5
			c2.7,5.5,5.4,11,8,16.6c1.4,3.1,1.4,6.3,0.4,9.6c-0.7,2.1-0.8,4.4-1.9,6.2c-3.3,6.1-2.1,11.6,1.1,17.5c3.6,6.5,4.9,13.6,2.8,21.1
			c-0.4,1.4-0.8,2.8-1.6,4c-1.3,1.9-3.1,3-5.6,2.4c-2.5-0.6-3.5-2.6-3.7-4.8C2585.1,1998.4,2585.5,1996.6,2585.5,1996z"/>
		<path class="st2" d="M2254.7,1771.6c0,2.7-2.7,5.4-5.5,5.5c-3.1,0.1-6.2-2.7-6.5-5.8c-0.3-2.6,2.2-5.8,4.8-6.1
			C2250.8,1764.8,2254.6,1768.2,2254.7,1771.6z M2663.8,1707.2c-3.3-0.2-6-3.4-5.7-6.7c0.3-3.5,3.4-6,6.7-5.5c3,0.5,5.1,3,5.1,6.1
			C2670,1704.4,2667,1707.4,2663.8,1707.2z"/>
		<path class="st2" d="M2496.9,1590.8c2.9,0.2,5.1,3,4.9,6c-0.2,3-2.7,5.4-5.6,5.5c-3.2,0-6.1-3.3-5.5-6.5
			C2491.3,1592.9,2494.3,1590.6,2496.9,1590.8z"/>
		<path class="st2" d="M2697.5,1937.4c0.1,3.2-2.7,6.1-5.9,6.3c-2.8,0.2-5.3-2.5-5.2-5.5c0.1-3,2.4-5.5,5.3-5.7
			C2694.6,1932.2,2697.4,1934.5,2697.5,1937.4z"/>
		<path class="st2" d="M2307.1,1572.6c-0.1,2.9-2.9,5.1-6,4.9c-3-0.2-5.5-2.6-5.7-5.5c-0.2-2.9,2.5-5.7,5.4-5.6
			C2304.3,1566.6,2307.2,1569.5,2307.1,1572.6z"/>
		<path class="st2" d="M2665.7,1865c-0.1,3.2-2.6,5.3-5.8,5c-2.7-0.3-4.8-2.5-4.8-5c0-3,2.5-5.7,5.4-5.8
			C2663.3,1859.1,2665.8,1862,2665.7,1865z"/>
		<path class="st2" d="M2381.9,1492.2c0.1,2.9-2.5,5.6-5.3,5.7c-2.8,0.1-5.9-2.4-6-5c-0.2-3,2.9-5.7,6.5-5.5
			C2379.8,1487.5,2381.9,1489.6,2381.9,1492.2z"/>
		<path class="st2" d="M2235.2,1887.2c-0.1,2.9-2.7,5.6-5.4,5.7c-2.6,0.1-5.3-2.8-5.3-5.6c0.1-2.9,2.5-5.5,5.4-5.6
			C2232.7,1881.6,2235.3,1884.4,2235.2,1887.2z M2464.9,1655c0,3.1-2.6,5.5-5.6,5.3c-2.6-0.2-4.8-2.4-5-4.9c-0.1-2.9,2.4-5.8,5.2-6
			C2462.2,1649.2,2464.9,1652,2464.9,1655z"/>
		<path class="st2" d="M2521.6,1513.4c0.1,3.1-2,5.4-5.1,5.6c-3,0.2-5.7-2.1-5.8-4.9c-0.1-2.8,2.2-5.4,5.2-5.6
			C2518.9,1508.2,2521.6,1510.5,2521.6,1513.4z"/>
		<path class="st2" d="M2407.4,1985.1c-2.4,0.3-4.9-1.7-5.3-4.1c-0.4-2.4,1.4-5,3.9-5.4c2.9-0.6,5.8,1.7,5.9,4.5
			C2412,1982.4,2409.8,1984.9,2407.4,1985.1z M2596.1,1680.1c0.3,2.6-1.7,5.1-4.2,5.4c-2.5,0.3-5-1.8-5.3-4.4
			c-0.3-2.5,1.7-5,4.3-5.4C2593.3,1675.4,2595.8,1677.5,2596.1,1680.1z M2324.5,1673.2c-0.2,2.5-2.6,4.6-5.1,4.6
			c-2.9-0.1-5.6-3.1-5.1-5.8c0.4-2.4,3.1-4.2,5.7-3.9C2322.6,1668.4,2324.7,1670.8,2324.5,1673.2z"/>
		<path class="st2" d="M2455.9,1434.3c-2.6-0.2-4.6-2.4-4.5-5c0.1-2.5,2.4-4.8,4.8-4.7c2.4,0.1,4.5,2.4,4.5,5
			C2460.6,1432.2,2458.3,1434.4,2455.9,1434.3z"/>
		<path class="st2" d="M2620.6,1792.4c0.1,2.2-1.6,4.3-3.8,4.5c-2.1,0.2-4.1-1.6-4.3-3.9c-0.2-2.3,1.5-4.3,3.7-4.4
			C2618.5,1788.5,2620.4,1790.2,2620.6,1792.4z M2620.9,1596c2,0.4,3.3,1.5,3.4,3.6c0.1,2.3-2.2,4-4.3,3.5c-2.1-0.5-2.9-2.1-2.7-4
			C2617.4,1596.9,2619,1596.2,2620.9,1596z M2553.5,1755.4c0.3,1.6-1.3,3.5-3.2,3.4c-1.5,0-2.7-0.6-3.1-2.2c-0.4-1.9,0.7-3.8,2.4-4
			C2551.5,1752.3,2553.2,1753.6,2553.5,1755.4z M361.2,1987c0.2-0.6,0.1-1.5-0.1-2.1c-0.2-0.5-0.9-1.2-1.4-1.3
			c-0.6-0.1-1.4,0.3-1.8,0.7c-0.5,0.5-0.8,1.2-1,1.9c-2.1,8.3-5.1,16.5-6.1,25.1c-0.5,0.6-0.6,1.2-0.4,1.9l0,0l0,0
			c-3.2,7-4.6,14.6-6,22.1l0,0l0,0c-1.1,4.1-2.1,8.3-3.2,12.4c-2,1.9-2.1,4.3-1.8,6.8c0.1,0.6,0.6,1.7,0.9,1.7c1,0,2.2-0.2,2.8-0.8
			c0.6-0.6,0.5-1.9,0.7-2.9l0,0c1.2-4,2.8-7.9,2.8-12.1c3-7.3,4.9-14.9,5.9-22.7c0.5-0.5,0.6-1.1,0.3-1.8c0,0,0,0,0,0l0,0
			C357,2006.7,358.2,1996.6,361.2,1987z M336.7,2071c-1.4,0.9-1.5,2.2-1.4,3.6h0c0,0,0,0,0,0c-0.6,2.9-2.5,5.5-2,8.6
			c-0.5,0.5-0.8,1.1-0.7,1.8v0c0,0,0,0,0,0c-2,1.9-2.2,4.3-1.8,6.9c0.1,0.6,0.7,1.7,1,1.7c1-0.1,2.3-0.3,2.8-1c0.6-0.7,0.4-2,0.5-3
			c0.1-1.3,0.2-2.5,0.4-3.8l0,0l0,0c2-1.9,1.9-4.5,2.2-6.9c1.8-1.9,2.4-4.2,2.1-6.7C339.5,2070.8,338,2070.2,336.7,2071z
			 M181.9,2158c-2-14.8-4.1-29.5-6.2-44.2c-0.1-0.7-0.1-1.5-0.2-2.2c0.4-2.8,0.1-5.5-1.5-7.8c0,0,0,0,0,0c0.7-2.5,0.2-5-0.5-7.4l0,0
			c0-0.7-0.1-1.4-0.1-2.1c0.4-2.7,0-5.3-1.4-7.7c0,0,0,0,0,0c-0.2-2.5-0.4-5-0.7-7.6c0.4-3.4,0-6.6-1.6-9.7c0,0,0,0,0,0
			c-0.3-2.6-0.5-5.2-0.8-7.8c0.3-2.8,0.2-5.5-1.5-7.9c0,0,0,0,0,0c0.7-2.5,0.2-5-0.5-7.4c0,0,0,0,0,0c0,0,0,0,0,0
			c0-0.7-0.1-1.4-0.1-2.1c0.4-2.8,0.1-5.4-1.4-7.8c0,0,0,0,0,0c-0.2-5.6,0.1-11.3-2.4-16.6l0,0l0,0c-0.2-2-0.4-4-0.5-6
			c0-0.8,0-1.6,0-2.4c0.4-3.5-0.2-6.8-1.7-9.9c0,0,0,0,0,0c0,0,0,0,0,0c-0.2-3.5-0.2-7.1-0.6-10.6c-0.1-1.3-0.7-3-2.5-3
			c-2,0-2,1.7-2,3c0,1.8,0.5,3.5,0.7,5.3c-0.2,3.5-0.3,6.9,1.9,10l0,0l0,0c-0.4,5.7-0.4,11.3,2,16.6c0.2,2,0.4,4,0.6,6
			c0,0.8,0,1.5,0,2.3c-0.4,3.4,0.1,6.6,1.5,9.6c0,0,0,0,0,0c0.3,2.6,0.5,5.2,0.8,7.9c-0.4,2.8-0.1,5.4,1.5,7.8c0,0,0,0,0,0
			c-0.7,2.5-0.2,5,0.5,7.4c0,0.7,0.1,1.4,0.1,2.1c-0.4,2.7,0,5.3,1.4,7.7c0,0,0,0,0,0c0.2,2.5,0.4,5.1,0.7,7.6
			c-0.5,3.4,0,6.6,1.5,9.7c0,0,0,0,0,0c0.3,2.6,0.5,5.2,0.8,7.8c-0.4,2.8-0.2,5.5,1.5,7.9c0,0,0,0,0,0c-0.7,2.5-0.2,4.9,0.5,7.4
			c-0.3,3.5-0.1,6.9,1.7,10c0,0,0,0,0,0c0,0,0,0,0,0c0.1,12,2.5,23.8,4.2,35.6c0.1,0.7,0.4,1.5,0.9,1.9c0.4,0.4,1.2,0.3,1.9,0.3
			c0.3,0,0.7-0.3,0.8-0.6C181.5,2160,182,2159,181.9,2158z"/>
		<path d="M270.3,1908.6L270.3,1908.6c-0.8-0.6-1.6-1.6-2.5-1.6c-11-0.1-22-0.1-33.1-0.1l0,0c-16.1-0.5-32.1-0.9-48.2-0.2v0
			c0,0,0,0,0,0c-20.5-0.4-41-0.7-61.5-1c-1,0-2.2,0.4-2.8,1c-1.2,1.1,0.1,1.7,0.9,2.2c12.3,1.8,24.7,1.5,37.1,1.1
			c3.6,0.2,7.1,0.5,10.7,0.5c11.8,0.2,23.6,0.4,35.3,0.6c2.4,2.2,5.3,1.7,8.2,1.8c10.4,0.1,20.8,0.1,31.2,0.1
			c6.8,0,13.6,0.1,20.4,0.1c2.2,0,4.3-0.2,5.3-2.6c0,0,0,0,0,0c0,0,0,0,0,0C271.4,1909.6,271.4,1908.8,270.3,1908.6z M160.8,1908.5
			C160.8,1908.5,160.8,1908.5,160.8,1908.5C160.8,1908.5,160.8,1908.5,160.8,1908.5C160.8,1908.5,160.8,1908.5,160.8,1908.5
			C160.8,1908.5,160.8,1908.5,160.8,1908.5C160.8,1908.5,160.8,1908.5,160.8,1908.5z"/>
		<path class="st2" d="M2792.1,2248.9c-4.5-1.9-9.3-1.3-14-1.4c-36.4-0.9-72.7-1.8-109.1-2.6c-44-1-88-1.9-132-2.9
			c-11.6-0.3-23.3-0.7-34.9-1.2c-1,0-2.5,0.5-3.2-0.9c-39.3,3-79.1,3.5-117.6-2.9c0.2,0.3,0.3,0.7,0.4,1.1c-3.4,0-6.5,0.1-9.6,0
			c-20.4-0.5-40.7-1.2-61.1-1.6c-78.2-1.8-156.3-3.5-234.5-5.3c-33.4-0.8-66.9-1.6-100.3-2.4c-78.9-1.9-157.8-3.8-236.7-5.7
			c-43.6-1-87.2-1.9-130.9-2.9c-85.8-2-171.6-4-257.4-6.1c-85.4-2-170.9-4.2-256.3-6.2c-76-1.8-152-3.4-227.9-5.2
			c-105.1-2.5-210.1-5.2-315.2-7.7c-71.6-1.7-143.2-3.2-214.8-4.9c-2.3-0.1-4.8,0.5-7.2-1.1c-3.8,0-7.3,0-11.2,0
			c-1.3,0.8-3.6,0.7-8.6,0.6c-46.5-1.2-93-2.4-139.5-3.5c-1.4,0-2.9-0.2-5.7-0.4c0-0.2-0.1-0.4-0.1-0.6c-3.5,0-6.7,0-10.4,0
			c0,0.2,0,0.4-0.1,0.7c-3,0-5.5,0.1-8,0c-46.9-1.2-93.8-2.3-140.7-3.5c-1.6,0-3.1-0.3-4.7-0.5c-1.3,6.7-0.8,3.9-2,10.6
			c9,2.1,18.2,1.5,27.4,1.7c79.9,1.9,159.9,3.6,239.8,5.4c36,0.8,72,1.7,107.9,2.6c78.5,1.9,157,3.8,235.5,5.6
			c44,1,87.9,1.9,131.9,3c84.7,2,169.3,4,254,6c82.9,2,165.7,4.1,248.6,6c77.4,1.8,154.8,3.5,232.2,5.2c34.5,0.8,69,1.6,103.6,2.5
			c78.5,1.9,157,3.8,235.5,5.7c44,1,87.9,1.9,131.9,2.9c88.3,2,176.6,4.1,264.9,6.2c80.7,1.9,161.3,4,242,5.9
			c55.6,1.3,111.2,2.6,166.8,3.9c54.5,1.2,109,2.3,163.5,3.4c2.5,0.1,5-0.3,7.6-0.5C2793.5,2254.8,2793.4,2251.9,2792.1,2248.9z"/>
	</g>
	<path d="M2087.9,2114.8c-5.8-37.6-17.8-73.2-37.8-106c-17-27.9-34.6-55.5-52.9-82.6c-4.5-6.6-8.8-13.2-10.2-21.4
		c-0.6-3.5-2-7-3.5-10.3c-6.5-14.9-8.7-30.6-8.4-46.8c0.3-16.1,3.2-31.8,6.1-47.5c4.1-22.5,4.3-44.9-2-67
		c-3.3-11.5-6.7-23.1-11.1-34.2c-10.3-25.8-14.1-52.6-13.5-80.1c0.5-22.5,0.7-45.1,3.1-67.5c2.1-19.2,5.5-38.1,12.3-56.2
		c3.1-8.2,5.7-16.5,8.4-24.8c6.4-19.5,6.8-39.2,2.1-59.1c-3.5-15.3-8.8-30-14.6-44.4c-5.6-13.8-10.3-27.9-13.7-42.4
		c-6.7-28.7-6.4-56.9,4.8-84.6c4-9.7,6.8-19.9,10.4-29.8c6.7-18.7,9.4-38,8.9-57.8c-0.5-21.8-0.7-43.6-2.8-65.4
		c-2.1-21.8-6.7-43-14.7-63.5c-7.9-20-17.4-39.1-28.2-57.7c-15.3-26.4-30.7-52.7-46-79.1c-7.3-12.6-13.1-25.9-18.5-39.4
		c-8.2-20.6-11.5-41.9-9.4-64.1c1.6-17.1,1.3-34.2-2.3-51c-5.6-26-18.8-47.8-37.1-66.7c-16-16.5-35.2-27.8-56.6-35.8
		c-29.5-11-59.6-15.6-90.9-10c-15.4,2.8-29.2,8.5-41.4,18.3c-6.8,5.5-13.1,11.5-18.3,18.5c-3.2-2-4.3-5.2-6.2-7.8
		c-5-7.1-10-14.3-15.9-20.7c-27.1-29.2-59.1-51.5-95.7-67c-30.3-12.9-62.2-20-94.8-23.6c-32-3.5-63.9-2.1-95.5,4
		c-42.3,8.2-81.3,24.3-116,50.1c-12.6,9.4-23.7,20.3-33.2,32.9c-20.9,27.6-32.2,59.2-36.9,93.2c-2.2,16.2-3,32.6-4.7,48.8
		c-1.5,15.2-3.9,30.2-8.2,44.9c-4.8,16.3-13.6,29.5-26.7,40.2c-9.9,8.1-20.2,15.4-31.5,21.5c-12.5,6.7-25,13.3-37.4,20
		c-10.9,5.9-21.3,12.5-29.9,21.6c-12.5,13.1-16.9,28.3-12.9,46.1c3.3,14.6,8.5,28.5,12.7,42.8c3.1,10.4,6.5,20.8,8.9,31.4
		c4.3,19,0.9,36.1-14.2,49.8c-4,3.7-7.8,7.7-11.4,11.7c-23.4,26.4-31.5,56.5-22.2,91c3.8,14.1,8.8,27.6,14.7,41
		c3.2,7.3,6.5,14.6,8.9,22.2c6.6,20.9,0.8,38.6-15,53.3c-5.1,4.7-10.4,9.1-15.4,13.8c-7.8,7.2-14.5,15.4-20,24.4
		c-9.4,15.4-13.6,32-9.6,50.1c1.6,7.1,4,14,7.3,20.5c3.1,6.2,6.6,12.1,9.9,18.2c6.2,11.1,12,22.4,16.6,34.3
		c7.4,19.2,7.6,38.3-1,57.2c-2.5,5.6-5.1,11.2-7.7,16.8c-4.3,9.2-8.8,18.3-12.7,27.7c-9.4,22.3-12.7,45.4-8.3,69.3
		c1.2,6.8,2.2,13.6,3.7,20.4c3.4,15.7,2.7,31-4,45.8c-1.8,4-3.3,8.1-4.7,12.2c-6.3,18.7-4.9,36.5,6.3,53.1c1.8,2.7,3.5,5.5,5,8.4
		c0.4,0.9,0.8,1.8,1,2.8c3.2,3.4,6.3,7,8.9,10.8c3-4.6,6.2-9,9.6-13.3c9.5-12,18.8-24.1,28.2-36.1c0.8-1.1,1.9-2,2.7-2.7
		c0.2,0,0.3,0.1,0.4,0.1c4.6-5.6,7.9-11.8,11.4-17.8c0.6-18.6,1.3-37.2,2-55.8c0.4-10.2,1.2-20.3,2.3-30.4c1.8-17.4,3.2-34.7,6-52
		c1.1-6.9,3.2-13.4,5.8-19.8c2.5-6.2,6.7-10.4,12.9-12.4c5.2-1.7,10.5-3.1,15.8-4c23-4,46.2-6.2,69.4-6.8c2.8-4.2,6-8.1,9.5-11.8
		c-0.1-0.7,0.2-1.6,0.9-2.5c2.2-2.9,4.5-5.7,6.9-8.4c17.1-19,36.6-35.3,58.1-49.1c29.2-18.8,60.9-32.2,93.4-43.8
		c9.2-3.3,18.6-6.1,27.9-9.2c0.6-0.4,1.3-0.5,1.9-0.3c9.1-3.2,17.8-6.4,27.5-6.6c6-2.5,12.2-4.2,18.4-5.7c6.6-1.5,13.4-2.4,19.8-3.5
		c1.6,1.9,1.5,3.7,1.4,5.6c-0.6,10.1-0.9,20.3-1.8,30.4c-0.4,4.9,1.3,8.2,4.9,11.3c14.7,12.3,31.2,21,49.7,25.9
		c3.4,0.9,6.7,1.8,10.1,2.7c-1,3.1-3.7,3.8-5.7,5.2c-12.4,8.3-23.9,17.7-35.1,27.5c-6.8,6-13.1,12.6-18.7,19.7
		c-1.6,2-3.4,2.5-5.7,1.2c-5.9-3.5-12.2-6.6-17.6-10.7c-17.3-13.2-30.5-29.9-40.8-48.9c-4.4-8.1-6-17.1-5.2-26.3
		c1.2-15,8.5-25.9,22-32.6c1.4-0.7,2.8-1.3,4.2-1.9c-9.7,0.2-18.4,3.4-27.5,6.6c0.3,0.1,0.6,0.3,0.9,0.5c-0.4,1-0.7,2-1.2,2.9
		c-10.1,16.5-9.8,33.6-3.2,51.1c2.3,6.1,5.5,11.9,9.5,17c6.4,8.3,13,16.5,19.8,24.5c7.4,8.6,16.2,15.5,26.1,21.1
		c2.8,1.6,5.5,3.4,8.2,5.1c0,0,0,0,0,0c-1.4,2.6-3.9,2.5-6.4,2.6c-5.9,0.2-11.8-0.9-17.7,0.5c-16.7-0.4-33.4-0.7-50.1-1.4
		c-23.6-1-47.2-2.3-70.8-3.6c-17.8-1-35.5-2.5-53.3-3.4c-14.2-0.8-28.3-1-42.5-1.5c-1.8-0.1-3.6,0-5.4-0.2c-1.7-0.1-2.6-0.9-2.7-2
		c-3.5,3.7-6.7,7.6-9.5,11.8c17.8-0.5,35.6-0.2,53.4,0.9c32.7,2,65.3,3.8,98,5.5c40.7,2.1,81.3,3.8,122,5.8
		c35.6,1.7,71.2,2.3,106.8,3.8c53,2.3,106.1,4,159.2,4.7c15.6,0.2,31.3,0.2,46.9,0.6c26.3,0.7,52.6,1.5,78.9,2.8
		c-2.7-3.9-5.2-7.9-8.2-11.6c0,0.3,0,0.6-0.1,1c-1.5,1.5-3.3,0.7-5,0.7c-49-2.5-98.1-3.3-147.2-3.4c-20.7,0-41.4-0.4-62.1-1.8
		c-1.4-0.1-2.9,0.2-3.9-1.2c-0.3-2.1,1.6-3,2.7-4.2c9.3-10.2,17.6-21.3,26.2-32.1c19.3-24.5,22.6-59.7,2.9-88.4
		c-0.8-1.1-1.4-2.4-2.1-3.6c2.1-1.6,3.7-0.1,5.3,0.4c13.2,3.9,26.2,8.6,38.5,15c46.3,23.8,88.1,53.6,124.1,91.2
		c6.8,7.1,13.1,14.6,18.7,22.7c0.8,1.2,2.1,2.3,2.1,3.9c3,3.6,5.5,7.7,8.2,11.6c0.6,0,1.2,0,1.7,0.1c22.5,1.1,45,2.7,67.5,4.4
		c6.9,0.5,13.7,1.6,20.4,3.4c5.3,1.4,10.1,3.8,14.9,6.4c6.5,3.6,9.8,8.9,11.8,16.1c5.6,20.9,7.7,42.1,8.9,63.6
		c0.9,16.3,1.2,32.7,0.7,49.1c-0.5,18.7-0.3,37.4,0.6,56.1c3.6,6.8,7.3,13.4,11.4,19.9c1.8-0.3,2.3,1.1,2.8,2
		c3.7,5.8,7.5,11.6,10.8,17.7c10.4,19.2,21.9,37.6,34.8,55.2c12.3,16.7,22.8,34.5,34.1,51.9c16,24.7,32.4,49.1,48.4,73.8
		c7.9,12.2,15.2,24.7,22.6,37.2c18.6,31.4,29,65.6,33.9,101.5c2.6,18.9,0.7,37.8-4.1,56.2c-5.5,21-19.5,35.3-41.5,41.9
		c7.8-8.7,13.3-16.7,16.1-26.4c4.2-14.8,3.1-29.5-1.3-44c-4.4-14.8-11.7-28.1-20.5-40.7c-13.7-19.5-30.3-36.2-48.7-51.1
		c-21.8-17.7-45.6-32.3-70.8-44.5c-2-0.9-3.9-1.9-6-2.7c-3.5-1.3-5.3-3.4-5-7.3c0.2-2.5,0-5.1-0.2-7.6c-2-34.1-4.1-68.2-5.9-102.3
		c-0.5-9.8-0.9-19.6-0.6-29.4c0.8-24,0.3-48-0.1-71.9c0-3.2,0-6.3,0-9.2c0.4-0.2,0.8-0.3,1.1-0.3c-4.1-6.5-7.8-13.2-11.4-19.9
		c0.1,2.7,0.3,5.5,0.4,8.2c1.5,28.7,1.3,57.4,0.8,86.2c-0.3,18.2-0.1,36.3,1.5,54.5c1.2,14.1,1.7,28.3,2.5,42.5
		c2.1,38.5,4.4,76.9,6,115.4c1.9,45.4,1.6,90.9,0.5,136.3c-0.1,6.2-0.8,12.3-1.3,18.5c-0.5,5.9-1,6.4-6.3,6.3
		c-4.7-0.1-9.4-0.4-14.2-0.5c-38.9-1.2-77.8-2.4-116.7-3.7c-38.2-1.2-76.3-2.6-114.5-3.7c-63.2-1.9-126.5-3.8-189.7-5.7
		c-8.7-0.3-17.4-0.7-26.2-1.1c0,0.1,0,0.1,0,0.2c-61.4-1.9-122.8-3.7-184.3-5.6c-46.9-1.4-93.8-2.9-140.6-4.4
		c-43.2-1.3-86.5-2.6-129.7-4c-13.6-0.4-12.2,0.9-11.7-12.9c2.1-58.5,4.4-117,6.6-175.5c1.5-40,3-79.9,4.6-119.9
		c1.5-39.2,3-78.5,4.4-117.7c0.7-18.5,1.3-36.9,1.9-55.4c-3.4,6-6.7,12.2-11.4,17.8c2.1,0.6,1.5,2.2,1.5,3.4
		c-1.7,41.4-3.5,82.8-5.3,124.2c-1.1,26.5-2.1,53-3.1,79.5c-0.4,9.1-1.1,18.1-1.3,27.2c-0.1,4-1.9,5.9-5.4,7
		c-4.5,1.5-8.9,3.1-13.3,4.9c-20.5,8.1-38.3,20.7-55.1,34.7c-7,5.8-14,11.6-20.9,17.5c-14.5,12.2-28.2,25.2-39.8,40.3
		c-12.2,15.7-20.5,33.3-24.2,53c-3,16.2-0.5,31.8,4.2,47.3c1.8,5.7,5.6,10.1,10,14.1c0.6,0.6,0.8,1.2,0.6,1.7
		c-0.2,0.6-0.5,0.8-0.7,0.8c-5.7-1.3-11-3.8-16-6.7c-12.4-7.2-19.8-18.4-22.9-31.9c-5.6-23.8-7.8-47.9-3.8-72.4
		c2.8-17.1,9-32.8,15.6-48.6c10-23.8,22.7-46.2,34.7-69.1c20.7-39.6,44.1-77.7,68.2-115.3c9.2-14.4,17.7-29.2,26.3-43.9
		c3.1-5.3,6.3-10.6,9.7-15.7c-2.6-3.8-5.8-7.3-8.9-10.8c0.8,3.1,0.4,6.2-1.6,9.5c-11.6,19.3-22.6,39-34.6,58
		c-14.9,23.6-30.5,46.9-44.1,71.4c-7.3,13-14.5,26-21.5,39.2c-12.9,24.4-26.5,48.5-37.2,73.9c-6.4,15-12.2,30.2-15.3,46.4
		c-5,26.6-3,52.9,3.3,78.9c4.3,17.8,14.2,31.8,30.8,40.2c8.4,4.3,17.3,7.5,26.5,9.7c11.7,2.7,23.6,3.9,35.6,5.1
		c27,2.7,53.7,0.8,80.3-4c5-0.9,9.6-3,13.9,1.9c1.6,1.9,4.8,1,7.4,1.1c42.9,1.4,85.8,2.7,128.6,4c37.1,1.1,74.1,2,111.2,3.2
		c56,1.8,111.9,3.7,167.9,5.5c45.4,1.5,90.8,2.9,136.3,4.3c56.3,1.7,112.7,3.4,169,5.1c47.2,1.4,94.5,2.9,141.7,4.4
		c12.4,0.4,24.7,1,37.1,1.3c14.5,0.4,29.1,0.5,43.6,0.8c3.6,0.1,6.5-0.6,7.4-4.7c0.3-1.7,1.7-2.3,3.2-2.2c2.9,0.2,5.8,0.3,8.7,0.8
		c16.9,2.6,33.9,4.1,50.9,5.5c13.4,1,26.8,1.3,40.2-0.8c12.3-1.9,24-5.5,35.8-9.3c23.6-7.6,38.9-23.7,45.7-47.3
		C2090.1,2159.2,2091.3,2136.9,2087.9,2114.8z M1644.8,676.7c1-1,1.9-2.1,3.5-2.1c0.6-0.4,1.3-0.6,2-0.6c0,0,0,0,0,0
		c1.5-2.5,4.2-2.6,6.7-3.2c3.7-0.8,7.3-1.7,11-2.5c1.3-0.2,2.6-0.4,3.9-0.6c2.1-1.6,4.5-2.2,7.2-1.8c0.7,0,1.4,0,2.1,0c0,0,0,0,0,0
		c0,0,0,0,0,0c1.2-0.1,2.4-0.3,3.6-0.4c0,0,0,0,0,0c9.2-2.8,18.4-2.5,27.6,0c2.6,0.2,5.2,0.4,7.8,0.6h0c2.7-0.4,5.3-0.2,7.6,1.6
		c2.5,0.3,5.1,0.3,7.4,1.1c14.2,4.9,27.7,11.4,39.4,21c3.2,1.1,5.4,3.6,7.7,5.9c10.6,10.2,18.7,22.2,25.4,35.1
		c8.1,15.6,7.9,32.9,7.3,50c-0.4,10.9-0.9,21.7-1.6,32.6c-1.6,27.5,3.8,53.5,15.9,78.1c1.6,3.2,3,6.6,4.4,9.9
		c2.5,2.3,3.6,5.3,4.5,8.4c0,0,0,0,0,0c0.5,0.8,0.9,1.6,1.2,2.5c0.4,0.7,0.7,1.4,1.1,2.2c0.6,0.8,1.5,1.6,1.7,2.5c0,0.1,0,0.2,0,0.3
		c0,1.4-1.6,2.2-2.8,1.4c-0.2-0.1-0.3-0.2-0.5-0.3c-0.5-0.4-0.6-1.2-0.9-1.8c-2.4-3.4-5.6-6.3-6.7-10.6
		c-17.9-24.4-24.7-52.2-24.7-82c0-13.8,0.8-27.6,1.3-41.4c0-1.5,0.2-2.9,0.2-4.4c1.8-33.4-5.2-54.4-36-83.6
		c-0.8-0.7-1.5-1.6-2.2-2.3c-3.4-2-6.9-3.8-10.3-6c-14.3-9.1-29.8-14.8-46.6-16.7c-2.3,0.4-4.6,0.3-6.7-0.6
		c-6.5-0.5-12.3-0.9-18.7-1.3l-1.3,0.4c-4,2.2-8.4,2.2-12.8,2c-1.2,0.1-2.4,0.3-3.5,0.4c0,0,0,0,0,0c0,0,0,0,0,0
		c-3.1,2.2-6.7,1.8-10.1,2.2c0,0,0,0,0,0c-2.6,2.9-6.5,2.2-9.6,3.6c-0.6,0.5-1.3,0.7-2,0.6c-0.4,1.1-1.2,1.7-2.3,1.8
		c-0.3,0-0.7,0-1-0.2C1644,678,1644.1,677.4,1644.8,676.7z M1811.8,1357.2C1811.8,1357.2,1811.8,1357.2,1811.8,1357.2
		c-2.8-2.9-3.2-6.9-4.3-10.5c-0.7-2.4-1.3-4.8-1.9-7.2c0,0,0,0,0,0c0.2-5.1-2.8-9.8-2.2-15c0,0,0,0,0,0c-0.2-2.1-0.4-4.2-0.5-6.3
		c-2.1-2-2-4.5-1.6-7c-0.7-10.1-1.5-20.3-2.2-30.4c-0.2-5.6-0.4-11.2-0.6-16.8c-2.8-5.8-1.7-12-1.6-18c-0.1-5-0.3-10.1-0.4-15.1
		c-2.8-4.9-2.3-10.2-1.5-15.5c2,5,3.7,10.1,3.4,15.6c0.2,4.2,0.4,8.5,0.6,12.7c2.7,5.1,1.7,10.5,1.5,15.8c0.2,6.4,0.4,12.8,0.6,19.2
		c1.7,2.1,1.7,4.6,1.8,7c0.2,6.4,0.3,12.7,0.5,19.1c0,0,0,0,0,0c2.6,3.5,1.9,7.5,1.7,11.4c0.1,2.9,0.2,5.7,0.2,8.6
		c3.2,3,1.8,7.1,2.4,10.7C1810.5,1342.4,1812.1,1349.7,1811.8,1357.2C1811.8,1357.2,1811.8,1357.2,1811.8,1357.2
		C1811.8,1357.2,1811.8,1357.2,1811.8,1357.2C1811.8,1357.3,1811.8,1357.3,1811.8,1357.2c0.1,0.1,0.1,0.1,0.1,0.2
		c0.5,0.4,1.1,0.7,1.4,1.2c0.5,0.7,0.2,1.4-0.7,1.5c-0.1,0-0.5-0.5-0.5-0.8c-0.1-0.6-0.2-1.3-0.2-1.9c0,0,0,0-0.1-0.1
		C1811.8,1357.3,1811.8,1357.3,1811.8,1357.2C1811.8,1357.2,1811.8,1357.2,1811.8,1357.2z M1709.6,1097.9
		c1.6-12.6,3.2-25.1,4.8-37.7c3.3-26.3,4.7-52.7,2.7-79.2c-0.1-1.4-0.3-2.9-0.3-4.3c0-3.3,0.9-4.4,4.1-5.4
		c12.6-3.9,23.6-1.1,33.2,7.7c6.8,6.3,11.1,14.3,14,22.9c4.8,14,5.8,28.4,4.1,42.9c-2.8,24.7-11.4,47.1-28.4,65.7
		C1732,1107.1,1721.5,1100.5,1709.6,1097.9z M1730.2,1168.9c-0.5,1.4-1.5,2.4-3,2.6c-1.7,0.2-3-1.9-2.4-3.7c0.5-1.5,1.5-2.3,3.2-1.9
		C1729.2,1166.1,1730.4,1167.8,1730.2,1168.9z M1713.5,1200.2c-0.2,3.6-1.2,6.8-3.6,9.5c-11,26.5-23.8,51.9-42.5,73.9
		c-1.2,1.4-2.5,2.6-3.8,3.9c0,0,0,0,0,0c-0.6,2.4-2.3,3.7-4.4,4.5c-0.2,1.3-1,2-2.2,2.4c-0.3,1.1-1,1.7-2.1,1.9
		c-0.2,0.3-0.4,0.9-0.6,0.9c-0.8-0.2-0.6-0.5,0.4-1c0-1.8,0.4-3.4,2-4.4c0,0,0,0,0,0c0,0,0,0,0,0c0.6-0.7,1.2-1.4,1.9-2.1
		c0.1-0.2,0.2-0.3,0.3-0.3c0.3-1,0.5-2,1.9-1.9c1.8-3.1,3.3-6.5,5.4-9.3c15.8-20.9,27.2-44.3,39-67.5c0.7-1.3,1.3-2.6,2-3.8
		c0.5-3.4,1.4-6.6,3.9-9.1c-0.1-0.7,0.1-1.3,0.5-1.8c-0.3-0.7-0.4-1.4-0.3-2.1c1.6-0.6,3.1-2.5,4.8-0.3c-0.2,1.9-0.6,3.7-2.2,5
		C1714,1199.1,1713.9,1199.7,1713.5,1200.2z M1689.5,1154.5c0.5,1,1,1.9,1.4,2.9c3.5,8.9,9.2,15.3,18.9,17.5c0.6,0.1,1,1.7,1.2,2.7
		c0,0.1-1.1,0.8-1.8,0.9c-4.2,0.5-7.8-1.4-10.9-3.8c-5.3-3.9-9.5-8.8-11-15.5c-5.7-11.2-4.1-22.4,0.7-33.3
		c2.3-5.4,6.5-9.5,11.8-12.3c1.6-0.9,3.4-1.3,5.2-0.9c0.5,0.1,1,0.8,1.3,1.3c0.1,0.2,0.1,0.8-0.1,1c-0.8,0.7-1.6,1.5-2.5,2
		c-12.2,5.9-14.9,16.6-14.9,28.8C1688.7,1148.8,1689.2,1151.6,1689.5,1154.5z M1643.8,745.6c0.2-2.9,0.7-5.7,2.1-9.1
		c0.5-1.2,2.4-0.9,2.5,0.4c0.7,7.3-0.7,13.5-0.4,19.6c0.3,7.2,0.3,14.5,0.5,21.7c0,0,0,0,0,0c1.3,3.1,2.2,6.3,1.7,9.7
		c0.9,3.5,1.7,7,2.6,10.5c1.3,2.9,2.8,5.8,3.8,8.9c5,14.5,12.4,27.6,21.6,39.7c10.7,14.1,22.3,27.4,35.4,39.3c1.7,1,3.3,2,5.1,3.1
		c1.7,1,0.7,3.7-1.2,3.4c-2.7-0.4-4.7-2-6.5-4c-4.2-1.6-7.2-4.8-10.2-7.9c-13-13.2-24.9-27.4-34.8-43.1
		c-6.8-10.8-12.2-22.2-15.3-34.6c-1.5-2.6-2.8-5.2-2.6-8.3c-2.3-3.1-2.3-6.8-2.2-10.4c0,0,0,0,0,0c-1.7-3.8-2.2-7.7-1.7-11.8
		C1642.8,763.6,1643.3,754.6,1643.8,745.6z M1174.7,859.7c2.5-3.2,4.7-6.6,8.3-8.7c0,0,0.1-0.1,0.1-0.1c0,0-0.1,0-0.1,0
		c0.5-1.1,1.1-2.1,2.5-2.2l0,0c0.1-1.3,0.7-2.2,2.2-2.3l0,0c0.2-0.6,0.5-1.3,0.7-1.9c0.1,0,0.2,0,0.2,0c-0.1,0-0.2-0.1-0.2-0.1
		c1.2-2.8,2.8-5.2,5.5-6.7h0c0.4-1.2,0.9-2.2,2.3-2.4c-0.2-0.7,0.1-1.3,0.7-1.8c0.4-2,1.4-3.6,3.3-4.5c0,0,0,0,0,0
		c1.3-2.4,2.3-5.1,4.9-6.4c0,0,0,0,0-0.1c0.3-0.7,0.6-1.4,0.9-2.1c0,0,0,0,0-0.1c0.8-2.5,2.1-4.7,4.1-6.5c0,0,0,0,0,0
		c0-1.9,1.4-3,2.3-4.3c0,0,0,0,0.1,0c1.4-2.8,2.9-5.7,4.3-8.5c0.8-2.6,1.6-5.1,3.8-6.9c0.9-2.1,1.8-4.2,2.8-6.2
		c2.8-6.9,5.3-13.9,9.6-20c0,0,0,0,0,0c0.5-2,0.9-4.1,2.8-5.4c-0.3-1.9,0.5-3.4,2.1-4.4c-0.2-1.4-0.1-2.7,1.6-3.2
		c0.7-1.6,0.7-3.7,2.9-4.3c0,0,0,0,0-0.1c0.2-0.7,0.4-1.3,0.5-2c0,0,0,0,0.1,0c0,0,0-0.1-0.1-0.1c0.7-1.4,1.3-2.9,2-4.3
		c1-3.4,2.5-6.5,5.3-8.9c0,0,0,0,0,0c0.5-0.7,1-1.4,1.5-2.1c1.4-3.3,2.5-6.7,5.7-8.9c-0.2-0.7,0.1-1.4,0.6-1.9c0,0,0.1,0,0.1,0
		c0,0-0.1-0.1-0.1-0.1c0.2-2,1.3-3.5,3-4.5c0,0,0,0,0,0c0.4-0.7,0.9-1.3,1.3-2c0.3-2.1,1.4-3.6,3.2-4.6c0,0,0.1,0,0.1,0
		c0.4-0.6,0.7-1.2,1.1-1.8c0.2,0.3,0.4,0.6,0.6,0.9c-0.2-0.3-0.4-0.7-0.6-1c1.2-3.6,3.6-6.3,6.3-8.9c1.6-2.5,3-5.1,5.7-6.6
		c0,0,0,0,0,0c0.5-1.1,1-2.1,2.4-2.3c0.4-1.6,1.3-2.8,2.8-3.5c0.1-0.1,0.1-0.1,0.2-0.1c0.3-1.3,1.1-2.1,2.3-2.5h0
		c0.1-1.2,0.8-1.9,2-2.3c5.6-7.6,11.8-14.5,19.7-19.8c0,0,0,0,0,0c0,0,0,0,0,0c0,0,0,0,0,0c0.8-0.7,1.5-1.4,2.3-2.1
		c2.2-3,5-5.1,8.5-6.4c0,0,0.1,0,0.1,0.1c0.6-0.3,1.2-0.5,1.8-0.8c0,0,0.1-0.1,0.1-0.1c3-3.3,6.9-5.2,11-6.6c0,0,0,0,0,0
		c1.8-2,4-3,6.6-3.4c0.1,0.1,0.2,0.2,0.4,0.3c-0.1-0.1-0.2-0.2-0.4-0.3c0.5-0.5,1-0.7,1.7-0.5c0.9-1.8,2.6-2.1,4.4-2.2
		c1.5-1.7,3.5-2.3,5.7-2.3c0,0,0.1,0,0.1,0c3.1-2,6.6-3.1,10.3-3.6c1-0.2,1.9-0.3,2.9-0.5c4.4-2.3,9.2-3.4,14.2-3.8
		c1.5-0.2,3-0.5,4.5-0.7c1.1-1.2,2.4-1.5,3.9-1.1c0.2,0.1,0.3,0.1,0.5,0.2c-0.2-0.1-0.3-0.1-0.5-0.2c3.5-0.4,7.1-0.7,10.6-1.1
		c1.3-0.4,2.6-1.2,4-1.3c10.6-0.8,21.2-0.9,31.8,0.1c1.4,0.1,2.6,0.9,4,1.3c2.9,0.2,5.7,0.4,8.6,0.6c3.3-0.5,6.4-0.4,9.3,1.5
		c3-0.1,5.9,0,8.6,1.4c0.6-0.3,1-0.2,1.3,0.4c3.7,0.3,7.3,0.5,10.5,2.8c0.9,0.1,1.9,0.2,2.8,0.3c0,0,0,0,0,0c0,0,0,0,0,0
		c2-0.3,3.6,0.6,5.1,1.7c4.7,0.7,9.3,1.6,13.3,4.3c1.2,0.3,2.4,0.5,3.5,0.8c5.5,1.3,10.9,2.6,15.6,6.1c3.3,0.8,6.4,1.9,8.8,4.4
		c0.7-0.2,1.3-0.1,1.9,0.4c3.2,0.8,6.5,1.3,8.9,3.9c0,0,0,0,0,0c0,0,0,0,0,0c2.1,1,4.3,2.1,6.4,3.1c1.7,0.6,3.6,0.8,4.6,2.7
		c0,0,0,0,0,0c0.3,0.1,0.7,0.2,0.9,0.4c0.6,0.6,1.7,1.5,1.5,1.8c-0.4,1-1.4,1.1-2.4,0.5c-2.8-0.6-5.5-1.4-7.3-3.8
		c-1.9-0.8-3.8-1.7-5.7-2.5c-3.3-0.6-6.8-1-9.3-3.8c-1.7-0.2-3.3-0.7-4.3-2.3c-2.5,0.2-4.3-1.4-6.3-2.5c-5.5-1.3-10.7-3.2-15.6-6
		c0,0,0,0,0,0c0,0,0,0,0,0c-1.3-0.3-2.7-0.6-4-0.9c-2.2-0.6-4.4-1.2-6.5-1.9c0,0,0,0,0,0l0,0c-2,0.3-3.5-0.8-5.1-1.8l-0.7,0.1
		l-0.7-0.4c0,0,0,0,0,0c0,0,0,0,0,0c-1.9,0.2-3.6-0.3-4.9-1.7c-3.4,0-6.5-0.7-9.4-2.5c0,0,0,0,0,0c0,0-0.1-0.1-0.1-0.1c0,0,0,0,0,0
		c0,0,0,0,0,0c-3.1,0.2-6.1-0.2-8.7-2.2c0,0,0,0,0,0c-1.5-0.1-3.1-0.2-4.6-0.3c0,0,0,0,0,0c-4.3,0.4-8.6,0-12.6-1.9
		c-0.9-0.1-1.9-0.2-2.8-0.3c0,0,0,0,0,0c0,0,0,0,0,0c-3-0.1-6.1-0.1-9.1-0.2c-7.4,0-14.8,0-22.3,0c-2.3,0-4.6,0.1-6.9,0.1
		c-2.4,0.2-4.8,0.4-7.1,0.5c-3.2,2.2-6.9,2.2-10.5,1.9c-1.1,0.1-2.1,0.3-3.2,0.4c-2.3,2.1-5,2.2-7.9,1.9c-2.1,2.3-5,2.3-7.8,2.5
		c-1.5,1.6-3.5,2-5.6,1.9c-0.1,0-0.2,0.1-0.3,0.1c-2.8,2.1-6.2,2.8-9.4,3.9c-1.5,0.6-3,1.2-4.5,1.8c-0.5,0.5-1.1,0.7-1.8,0.6
		c0,0,0,0,0,0c0,0,0,0.1,0,0.1c-2.2,2.1-5.7,3.9-8.9,4.4c0,0,0-0.1,0-0.1c-3.6,2.2-7.2,4.3-10.8,6.5c0,0,0,0,0,0v0
		c-2.5,2.8-5.4,5.1-8.9,6.5c0,0,0,0,0,0c0,0-0.4,0-0.4,0c0,0-0.1,0.1-0.1,0.1c0,0,0.1,0,0.1,0c-0.6,1.4-2.4,2.7-3.8,3.4
		c0.1-0.2,0.2-0.4,0.2-0.6c-0.1,0.2-0.2,0.3-0.3,0.5c-5.1,5.9-10.7,11.4-16.7,16.4c0,0,0,0,0,0c-0.5,1.2-1.1,2.1-2.5,2.3
		c-0.3,1.4-1.1,2.3-2.5,2.7c-0.1,1.3-0.8,2-2.1,2.2c0,0,0,0,0,0c0.1,0.8-0.2,1.3-1,1.4c-0.5,0.7-1,1.4-1.6,2.1c-1.1,2.8-3,5-5.4,6.8
		c-0.1,0-0.2,0.1-0.2,0.1c0.1,0,0.2,0,0.2,0c-0.4,0.6-0.8,1.2-1.3,1.9c0,0,0,0,0,0c-1.3,3.5-3.7,6.2-6.2,8.9
		c-0.8,1.8-1.6,3.6-3.6,4.4c-0.4,0.6-0.7,1.3-1.1,1.9c-0.4,2-1.3,3.6-3.2,4.6c0,0-0.1,0.1-0.1,0.1c0,0,0.1,0,0.1,0
		c-0.4,0.6-0.9,1.3-1.4,2c0,0,0,0,0,0c-1.4,3.2-2.8,6.5-5.8,8.7c0.3,0.7,0.1,1.4-0.4,2c-1,3.5-2.7,6.5-5.4,9c-0.9,1.5-1,3.6-3.1,4.2
		c0,0,0,0.1-0.1,0.1c0,0,0,0,0.1,0c-0.2,0.7-0.4,1.4-0.6,2.1c0,0,0,0,0,0c-0.6,1.4-1.3,2.8-1.9,4.2c-0.7,2.7-1.7,5.2-3.8,7.2
		c-0.1,1.8-0.8,3.2-2.3,4.2c0.1,0.7,0,1.3-0.5,1.8c-3.1,7.5-5.7,15.3-10.4,22.1c-0.9,2.1-1.8,4.1-2.7,6.2c-0.7,2.6-1.5,5.2-3.8,7
		c-0.8,2.5-1.8,4.9-4.1,6.5c0,0,0,0-0.1,0.1c-0.3,1.7-0.6,3.4-2.6,4.1c-0.3,2.9-1.6,5.1-4.1,6.7c0,0,0,0,0,0c0,0,0.1,0,0.1,0
		c-0.3,0.7-0.6,1.3-0.9,2c0,0-0.1,0-0.1,0c0,0,0,0,0,0c-0.5,2.3-2.5,4.6-4.1,6.4c0,0,0,0,0,0c-0.4,2.1-1.4,3.6-3.4,4.5
		c-0.5,1.3-1.1,2.4-2.5,2.8c-0.1-0.5-0.4-0.8-0.8-1.1c0.3,0.4,0.5,0.7,0.8,1.1c0.3,0.6,0.1,1-0.4,1.4c-0.9,3-3,5.1-5.5,6.8
		c-0.1,0-0.2,0.1-0.2,0.1c0.1,0,0.2,0,0.2,0c-0.6,0.9-1.6,2.4-3,2.6c0.2,0.7,0,1.2-0.7,1.6c-0.5,0.7-1,1.4-1.6,2.1c0,0-0.1,0-0.1,0
		c0,0,0.1,0.1,0.1,0.1c-2.7,4.8-6.8,8.3-11.2,11.5c-0.2,1.1-0.9,1.6-1.9,1.8l-0.5-0.5C1172.3,862,1173,860.6,1174.7,859.7z
		 M1528.3,757.4c-0.3,1.1-1,1.9-2.1,2.1c0,0,0,0,0,0c-0.3,1.2-1,2-2.3,2.1c0,0,0,0.1,0,0.1c0,0-0.1-0.1-0.1-0.1c0,0,0.1,0,0.1,0
		c-0.1-0.7-0.1-1.3,0.1-2c0.8-1.8,2.3-2.4,4.2-2.4c0.3-0.3,0.7-0.6,1-0.9C1528.8,756.7,1528.6,757.1,1528.3,757.4L1528.3,757.4z
		 M1519.5,766.1C1519.5,766.1,1519.5,766.1,1519.5,766.1C1519.4,766.1,1519.4,766.1,1519.5,766.1c-0.1,1.4-0.8,2.1-2.2,2.1
		c0,0,0,0,0,0c0,0,0,0,0,0c0,0,0,0,0,0c0,0,0,0,0,0c0,0,0,0,0,0C1517.3,766.8,1518.4,767.2,1519.5,766.1
		C1519.4,766.1,1519.4,766.1,1519.5,766.1L1519.5,766.1C1519.5,766,1519.5,766,1519.5,766.1c0-1.5,0.7-2.1,2.1-2.2c0,0,0-0.1,0-0.1
		c0,0,0.1,0,0.1,0c0.1-1.3,0.8-2,2.1-2.1c0,0,0-0.1,0-0.1l0.1,0.1c0,0-0.1,0-0.1,0c-0.1,1.3-0.8,2-2.1,2.1c0,0,0,0.1,0,0.1
		c0,0-0.1,0-0.1,0C1521.6,765.3,1520.9,766,1519.5,766.1C1519.5,766.1,1519.5,766.1,1519.5,766.1L1519.5,766.1z M1512.9,772.6
		C1512.9,772.6,1512.9,772.6,1512.9,772.6C1512.9,772.7,1512.9,772.7,1512.9,772.6C1512.9,772.7,1512.9,772.7,1512.9,772.6
		c0,1.4-0.8,2.1-2,2.5c0,0-0.1,0.1-0.1,0.1c-2.9,4.4-6.6,7.8-11.2,10.2c0,0-0.9,0.5-0.9,0.5l-1-0.3c0,0,0,0,0,0l0,0c0,0,0,0,0,0
		c0.2,1.6-0.9,2.2-2.1,2.7c-1.5,2.8-3.9,4.7-6.9,5.8c0,0-0.9,0.5-0.9,0.5l-1-0.3l0,0c-0.2-1.6,0.9-2.2,2.1-2.6
		c1.5-2.8,3.9-4.5,6.7-5.7c0,0,0,0,0,0c0.7-0.1,1.4-0.2,2-0.4c0,0,0,0,0-0.1l0,0l0,0c0,0,0,0,0,0l0,0l0,0c-0.2-1.6,0.9-2.2,2.1-2.8
		c2.9-4.2,6.7-7.3,11.1-9.9v0C1511.5,772.9,1512.2,772.8,1512.9,772.6C1512.9,772.7,1512.9,772.7,1512.9,772.6
		C1512.9,772.7,1512.9,772.7,1512.9,772.6C1512.9,772.6,1512.9,772.6,1512.9,772.6C1512.9,772.6,1512.9,772.6,1512.9,772.6
		c-0.1-1.6,0.6-2.3,2.1-2.2c0,0,0,0,0,0c0,0,0,0,0,0l0,0c0,0,0,0,0,0c-0.1-1.5,0.7-2.2,2.1-2.1c0,1.4-0.7,2.1-2.1,2.1c0,0,0,0,0,0
		c0,0,0,0,0,0c0,0,0,0,0,0C1515.1,771.9,1514.4,772.6,1512.9,772.6C1512.9,772.6,1512.9,772.6,1512.9,772.6
		C1513,772.6,1512.9,772.6,1512.9,772.6L1512.9,772.6C1512.9,772.6,1512.9,772.6,1512.9,772.6z M1467.3,809.8
		c-0.6,2.6-2.5,3.5-4.8,4.1c-0.6,0.5-1.2,1-1.7,1.4c0,0,0,0,0,0c0,0,0,0,0,0c-0.6,0.4-1.2,0.9-1.8,1.3c-0.1,0.1-0.2,0.2-0.3,0.2
		c0,0,0,0,0,0c-1.6,2.7-4.1,4.4-7,5.5c-0.5,0.5-1.1,0.8-1.8,0.9c-0.9,2.2-2.6,3.1-4.8,3.6c-0.4,0.4-0.9,0.7-1.5,0.9
		c0,0-0.1,0.1-0.1,0.1c0,0,0,0,0,0c-1,2-2.6,3.2-4.8,3.5c0,0-0.8,0.5-0.8,0.5s-0.9-0.1-0.9-0.1l0,0c-0.8,2.4-2.8,3.3-5,3.8
		c0,0-0.8,0.6-0.8,0.6s-1-0.2-1-0.2c0,0,0,0,0,0l0,0c-1.1,2.8-3.7,3.7-6.1,4.7c-0.1,0-0.1,0.1-0.2,0.1c-0.9,2.2-2.9,2.9-4.9,3.4
		c-1.5,0.7-2.9,1.4-4.4,2.2c-0.4,0.6-0.9,0.9-1.7,0.9c0,1.2-0.8,1.6-1.8,1.7c-2.2,2-4.6,3.5-7.5,4c-1.4,0.6-2.7,1.3-4.1,1.9
		c0,0,0,0,0,0c-0.7,0.1-1.4,0.3-2.2,0.4c-0.7,2.3-2.3,2.5-4.3,2.2c-0.6,2.4-2.3,2.5-4.3,2.2c-0.6,2.4-2.4,2.5-4.4,2.1
		c-0.9,2.6-2.9,2.7-5.1,2.2c-0.4,3-2.5,2.4-4.5,2.1c0.2,2.7-1.9,2.1-3.4,2.4c0,0,0,0,0,0c-0.8,1.7-2.3,2.3-4,2.3
		c-2.7,2.2-6,3.2-9.4,3.9v0c0,0-1,0.3-1,0.3l-1-0.1c-0.7,1.8-2.3,2.3-4,2.4c-2.7,2.3-6.1,3-9.4,3.9c-0.5,0.3-1,0.4-1.5,0.3
		c-2.5,2.7-6.2,2.7-9.4,3.9c0,0,0,0,0,0c0,0-1,0.3-1,0.3l-1-0.1c-2.7,1.6-5.4,3-8.6,2.5c0,0,0,0,0,0c-1.3,2.9-4.1,2.2-6.5,2.5
		c-1.7,2.4-4.3,1.8-6.7,1.9c-1.6,2.6-4.2,2-6.6,2.1c-2.4,3.1-5.6,1.8-8.8,1c2.9-1.1,5.9-2.1,8.8-3.2v0c2.2-0.6,4.4-1.3,6.7-1.9
		c0,0,0,0,0,0c2.2-0.7,4.3-1.3,6.5-2v0c2.1-0.7,4.2-1.3,6.3-2c0.1,0,0.2-0.1,0.3-0.1c0,0,0,0,0,0v0c3-0.3,5.3-3,8.6-2.6
		c0.7-0.1,1.4-0.3,2.1-0.4c0,0,0,0,0,0c1.3-2.5,3.5-2.4,5.8-2.1c0,0,0,0,0,0c1.2-2,3.1-2.2,5.1-2.4h0c1.5-2.6,4.4-2.5,6.7-3.5
		c2.2-0.8,4.3-1.5,6.5-2.3c0,0,0,0,0,0c0.7-0.4,1.3-0.5,2.1-0.4h0c1.2-2.2,3.1-2.6,5.3-2.3c0,0,0,0,0,0c1.9-2.7,5.1-2.8,7.8-3.9
		c1.1-0.1,2.2-0.2,3.3-0.3c0.3-2.7,2.3-2.2,4.1-2.1c0.7-2.9,3.7-2.5,5.6-3.7c1.5-0.7,2.9-1.5,4.4-2.2c1.5-0.7,2.9-1.5,4.4-2.2
		c1.5-0.8,2.9-1.5,4.4-2.3c0,0,0,0,0,0c0.7-0.2,1.5-0.3,2.2-0.5c0,0.1,0,0.3,0,0.4c0-0.1,0-0.3,0-0.4c0.6-2.2,2.6-2.3,4.3-2.9
		c0.4-1.8,1.6-2,3.1-1.7c1.3-2.2,3.5-3,5.8-3.7c0.6-0.1,1.3-0.2,1.9-0.3c0.1,0,0.1,0,0.2,0c0,0,0,0,0,0c0.6-2.1,2.7-2.3,4.2-3.3
		c1-1.8,2.7-2.5,4.5-3c0,0,0,0,0,0v0c2-1.1,3.6-3.2,6.3-2.9l0,0c0-1.7,1-2,2.4-1.9c0.6-2,2.1-2.5,4-2.5l0.5,0.4
		c-0.2-0.2-0.5-0.4-0.5-0.4c0.1-1.5,1.2-2,2.5-2.3c0.7-2.2,2.6-2.8,4.5-3.5c0,0,0,0,0,0v0c0.7-0.4,1.3-0.7,2-1.1
		c0.8-2.1,2.5-2.9,4.5-3.4c0.7-0.5,1.3-0.9,2-1.4c0,0,0,0,0,0c1.7-2.4,3.9-4.1,6.7-5c0,0,0,0,0,0v0c0.6-0.2,1.2-0.4,1.9-0.6
		c0.1,0,0.1-0.1,0.2-0.1c0-1.5,0.9-2,2.2-1.9c0.8-1.8,2.1-2.6,4.1-2.4L1467.3,809.8c-0.2-0.1-0.4-0.3-0.4-0.3c0-1.6,1.2-2.1,2.4-2.6
		c1.5-2.7,4-4.3,6.7-5.4c0,0,0,0,0,0v0c0.6-0.3,1.1-0.7,1.7-1c0.1-0.1,0.2-0.2,0.3-0.2c1.6-2.7,3.9-4.4,6.7-5.5c0,0,0,0,0,0
		c0.7-0.1,1.4-0.3,2.1-0.4l0,0c0.3,1.7-0.9,2.2-2.1,2.8c-1.5,2.8-3.9,4.6-6.9,5.7c-0.5,0.4-1,0.8-1.6,1.1c0,0-0.1,0.1-0.1,0.1
		c-1.7,2.6-4,4.4-7,5.4c0,0-0.8,0.5-0.8,0.5S1467.3,809.8,1467.3,809.8L1467.3,809.8z M1172.3,864c0,0,0.5,0.5,0.5,0.5
		c-0.4,0.3-0.8,0.5-1.3,0.8C1171.7,864.9,1172,864.5,1172.3,864z M1131.1,1024c1.7-7.9,4.2-15.4,9.4-21.7c5-6.2,11.5-8.4,19.4-6.9
		c2.4,0.5,3.9,1.7,4.3,4.2c0.9,5.7,1.9,11.4,2.9,17.2c5.2,31.1,12.2,61.8,20.8,92.1c-10.6,2.8-19.9,7.8-27.6,15.8
		c-0.7,0.7-1.8,1-2.8,1.5c-14.8-17.3-22.3-37.9-26.3-59.9C1128.6,1052.1,1128.1,1038,1131.1,1024z M1167,1182.8
		c7.9,15,25.3,21.3,39.4,11.8c0.9-0.6,1.9-1.1,2.9-1.4c0.6-0.2,1.5,0,1.9,0.4c0.8,0.8,0.9,2,0,2.8c-3.6,3.2-7.8,5.3-12.5,6.2
		c-2.1,0.4-4.3,0.5-4.4,0.5c-11,0.4-18.4-2.9-24.5-9.2c-13.7-13.9-17.1-38.5-4-57c0.6-0.8,1.6-1.3,2.5-1.9c0.3-0.2,0.9-0.3,1-0.2
		c0.4,0.5,1.2,1.3,1,1.6c-1.2,2.6-2.6,5.1-3.8,7.7C1160.2,1157.1,1160.3,1170,1167,1182.8z M1097.1,1145.5c1.9,4.3,2.8,8.4,3.3,12.6
		c0.5,2.2,1.2,5.7,1.7,7.9c0.4,1.1,0.5,2.4,0.4,3.7c0,0.8,0.1,1.5,0.1,2.3c0.5,2.7,1.1,5.4,1.6,8.1c0.5,2.3,1.3,4.5,2.3,6.6
		c0.3,0.7,0.5,1.4,0.6,2.2c0.3,1.6,0.8,3.1,1.5,4.6c1.3,2.9,1.7,6.1,2.4,9.1l0.1,0.3c0.5,1.8,1.3,3.5,2.2,5.1c1.3,2.3,1.6,5,2.2,7.6
		c0.3,1.4,5.6,14.3,6.5,17.5c0.4,0.6,7.9,20.7,8.8,24c0.1,1,1.4,4.6,2.2,7.5c0.5,1.7,1.3,3.3,2.2,4.9c1.2,2.2,1.1,4.9,1.9,7.3
		c0.8,3.6,2.5,5.3,3.3,9.3c1.1,2.8,2.1,5.5,2.3,9.2c0,0,0.6,3.9,0.7,5.3c0,0,0.6,7,1.1,10.6c1.4,4.3,1.5,7.9,2.1,11.5
		c0.6,3.3,0.3,10.1,0.3,10.1c0,0-0.6,3.6-0.7,5.4c-0.1,1.8-0.5,3.7-2.6,4.3c-1.3,0.4-2-2.5-1.1-5.5c0.4-1.3-0.5-6.4-0.5-8.3
		c0-2.9,0.1-5.8,0.1-8.7c0-2.2,0-4.3,0.1-6.5c-0.7-4.3-1.3-8.6-2-12.9c-0.1-1.2-3.6-12.9-4.6-18.7c-0.5-2.8-1.2-5.6-2.1-8.3
		c-1.6-4.7-3.7-10.9-4.1-12.2l-3.6-8.8c-0.6-1.5-1.2-3-1.6-4.5c0-0.1-0.1-0.3-0.1-0.4c-1.6-4.1-4.3-10.8-6-15c-1-2-1.3-4.2-1.9-6.4
		c0,0-5.6-14.3-6.5-17.5c0-0.1,0-0.2-0.1-0.3c-0.4-1.8-1.2-3.5-2.1-5.1c-1.3-2.3-1.6-5-2.2-7.7c-0.7-2.9-1.9-5-2.4-8.6
		c-1.4-2.5-2.3-5.1-2.6-7.9c-0.2-1.3-0.5-2.7-1.1-3.8c-0.9-1.8-1.2-3.7-1.2-5.7c0-2.1-0.3-4.2-0.9-6.2c-0.5-1.5-0.9-3.3-0.8-4.6
		c-0.6-4.1-1.4-8.1-1.5-12.8C1094.8,1144.7,1096.5,1144.3,1097.1,1145.5z M994,1505.9c-0.3,3.2-0.3,6.5-2.2,9.4c0,0,0,0,0,0
		c0,5.3-2,10.1-4.6,14.6c-0.1,2.4-1.5,4.3-2.7,6.2c-1.8,5.1-4.4,9.6-8.2,13.5c-0.8,1.3-1.6,2.7-2.4,4c-0.2,2.2-1.5,3.5-3.3,4.6
		c0,0,0,0,0,0c-0.4,0.6-0.8,1.2-1.2,1.8c-0.5,2.3-1.7,4.1-4.1,4.8h0c0.1,0.6,0.1,1.2-0.2,1.8c-0.3,0.6-0.4,1.4-0.9,1.8
		c-0.7,0.6-2.1,1.4-2.3,1.2c-1.4-1.4-0.2-2.3,1-3c0.1-1.1,0.5-2.1,1.8-2.3l0,0c0-1.8,0.1-3.5,2.2-4.3c0,0,0,0,0,0
		c0.3-0.7,0.6-1.4,0.9-2.1c0.6-1.8,1.1-3.8,3.2-4.5c1.2-2.1,2.3-4.2,3.5-6.3c2.2-4.8,4.4-9.6,7.6-13.9c1-2.6,2-5.3,3-7.9
		c1.4-4.4,2.8-8.8,4.2-13.2c0.7-4.3,1.4-8.6,2.2-12.9c0-2.5-0.2-5,0-7.5c0-0.9,0.2-2.4,1.7-1.8c0.8,0.3,1.8,1.4,1.9,2.3
		C996.1,1496.9,996.6,1501.6,994,1505.9z M1025.7,1327.4c-0.4,1.4-1.3,2.6-2,3.9c0.2,1.3-0.3,2.1-1.4,2.7c0.2,0.7,0,1.3-0.7,1.7
		c0.2,1.3-0.4,2.2-1.5,2.7c0.2,0.8-0.1,1.3-0.7,1.7c0.2,1.2-0.3,2-1.5,2.3l0,0.1c-5.2,9.9-10.2,19.9-15.6,29.8
		c-7.9,14.5-13.2,29.8-15.6,46.1c0,2.2,0,4.3,0,6.5c0.1,2.1,0.3,4.2,0.3,6.3c0,0.9-0.7,1.7-1,2.6c-0.8-0.6-1.7-1.1-2.2-1.9
		c-0.5-0.9-0.5-2-0.6-3c-0.6-7.3-1.5-14.5,1.4-21.6c0-5.6,1.8-10.7,3.8-15.8c7.3-18.1,16-35.6,26.8-52c-0.2-0.7,0-1.3,0.7-1.7
		c-0.2-1.3,0.4-2.2,1.5-2.7c-0.2-0.7,0-1.2,0.6-1.6c-0.2-1.8,0.6-3.2,1.8-4.3l0,0c-0.2-2.6,0.4-4.9,2-6.9c0-0.7-0.1-1.5,0-2.2
		c4-18.1,1.7-35.7-4.1-53.1c-3.8-11.6-7.6-23.2-9.3-35.4c-3.2-6-1.9-12.3-1.5-19.7c3.8,3.3,4.2,6.8,3.8,10.5
		c5.4,17.3,10.6,34.6,16.1,51.8C1032.7,1292,1031.4,1309.7,1025.7,1327.4z M1030.8,936.1c-5.6,13.2-6.1,26.8-2.4,40.5
		c2.6,9.8,5.2,19.6,7.9,29.4c4.3,15.6,6.3,31.3,4.4,47.4c-1.3,11-5.1,21.2-10.8,30.6c-3,5-6.4,9.7-9.5,14.6
		c-8.8,13.9-15.8,28.6-18,45.2c-0.1,0.7-0.3,1.4-0.4,2.1c-0.2,1.2-0.9,2-2,2.2c-1.7,0.4-1.6-1.1-1.7-2c-1-9.6,0.3-18.8,3.8-27.8
		c3-7.8,7-15.1,11.2-22.3c1.1-1.9,2.3-3.8,3.5-5.6c15.6-22,17.5-46.5,12.6-71.9c-2.3-12.1-5.8-24-8.4-36.1
		c-2.2-10.3-3.8-20.8-1.4-31.3c1.6-7.1,3.5-14.1,8.5-19.7h0c0.3-2.7,2.3-4.4,4-6.2c8-8.3,16.3-16.3,26.3-22.2
		c6.1-6.4,12.1-12.7,18.2-19.1l0,0c0.5-0.9,0.9-1.9,1.6-2.7c0.7-0.8,1.8-1.3,2.5-0.1c0.4,0.7,0.3,1.3-0.2,1.8c-0.9,1-1.8,1.9-2.5,3
		c-4.4,7.5-9.4,14.4-16.6,19.7c-4.1,3.5-8.3,6.9-12.4,10.5C1042.3,922.3,1036.3,929,1030.8,936.1z M1220.3,1381.2
		c-0.2,0.9-1.1,1.6-1.7,2.4c-1.9,3.8-3.2,7.9-6.6,10.7l-0.2,0.3c0.2,1.3-0.3,2.1-1.6,2.3l-0.2,0.2c0,1.3-0.6,2.1-1.9,2.3
		c-4.8,6.4-11.7,9.6-18.7,12.5c-8,3.3-16.3,6.1-24.6,8.7c-19,6.1-37.8,12.6-55.4,22.3c-15.4,8.5-29.3,18.7-40.1,32.9
		c-3.8,5-8.7,8.7-13.8,13.6c-0.1-9.9,2.9-17.6,8.6-24.4c9-10.7,19.5-19.6,31.4-26.6c18.2-10.6,37-19.9,57.9-24.2
		c6.7-1.4,13.4-3.2,20.1-4.9c9.5-2.4,18.5-6.4,27.2-10.7c0.3-1.2,1.1-1.8,2.4-1.8l0.3-0.2c0.2-1.2,0.8-1.8,2-1.8l0.3-0.3
		c0.1-1.2,0.7-1.8,1.8-1.9l0.2-0.3c0-1.3,0.6-2,1.9-2.2l0.1-0.1c1.3-3.6,3.9-6.2,6.3-9.1c0.6-0.7,1-1.6,1.7-2.2
		c0.4-0.3,1.7-0.4,1.8-0.2C1220,1379.4,1220.5,1380.4,1220.3,1381.2z M1268.8,1357.5c-0.8,1.2-1.4,2.4-2.3,3.4
		c-0.3,0.4-1.4,0.6-1.8,0.3c-0.5-0.3-0.7-1.2-0.7-1.9c0.1-1.8,0.5-3.6,2.1-4.7c0.9-3.9,2-7.7,2.6-11.6c2.2-15.1-2.1-28.7-10.6-41.1
		c-5.5-8.1-12.2-15.3-19.5-21.8c-8.7-7.7-17.6-15.1-26.5-22.5c-12.9-10.6-24.9-22.1-35.3-35.1c-2.1-0.8-3.2-2.6-4.3-4.4c0,0,0,0,0,0
		c-2.2-1-3.4-2.7-4.1-4.9c1.5,0.1,3.1-0.3,4.2,1.2c2.3,1.1,4.6,2.2,6.9,3.3c0.1,0.6,0.1,1.3,0,1.9c0.8,0.7,1.7,1.3,2.5,2
		c14.3,14.9,29.5,28.7,45.9,41.3c11.8,9,22.7,19.1,32.1,30.6c6.8,8.2,11.9,17.3,14.4,27.6C1277.3,1334,1276.7,1346.4,1268.8,1357.5z
		 M1219.5,1183.7c1.2,0.2,2,1,2,2c0,1.5-1.2,2.3-2.5,2.6c-0.5,0.1-1.4-0.4-1.6-0.8C1216.6,1186.3,1218.1,1184,1219.5,1183.7z
		 M1370,1445h1c-8-14-4-31-9-46c-1-3-6-2-9-2c3,0,8-1,9,2c5,15,1,32,9,46H1370z M1503.2,1546.5c-1.4,0.2-2.9,0.3-4.3,0.2
		c-23.5-2.2-47.2-1.4-70.8-2.3c-22.8-0.9-45.7-1.3-68.5-4c0.3-0.7,0.6-1.4,0.9-2.1c0,0,0,0,0,0c16.8-23.5,39.3-40.5,63.2-55.9
		c3.9-2.5,8.1-4.6,11.2-7.3c25.8,18.7,47.9,40,66.3,65.1c1.1,1.4,2,3,2.8,4.6C1504.2,1545.2,1503.6,1546.5,1503.2,1546.5z
		 M1562.3,1474c-1.6,10.9-6.2,20.7-12.9,29.6c-10.3,13.6-20.8,27-33.7,39.9c-19.4-25.2-38.4-49.3-64.5-67.1
		c4.1-2.7,7.4-2.7,10.6-3.3c16.3-3.1,30.9-9.8,44.3-19.6c5.6-4.1,7.9-9.1,8.1-15.6c0.2-5.4,0.3-10.9,0.4-16.3
		c0.2-5.1,0.3-10.2,0.6-15.2c0.1-2.7,1.9-3.7,4.4-2.4c0.1,0.1,0.3,0.1,0.4,0.2c-4-3.1-10.2-3.5-13.9-8c-0.5,13.9-1,27.8-1.4,41.8
		c-0.1,3.8-1.8,5.9-4.5,8.1c-11.9,9.4-25.5,15.2-40.3,17.9c-30.7,5.6-59-0.9-85.1-17.7c-0.9-0.6-1.7-1.2-4.4-3.1
		c22.8-3.2,40.9-12.1,57.8-23.7c28.8-19.7,52.3-44.7,72-73.4c2-2.9,4.1-5.8,5.9-8.3c2.4,0.1,2,1.4,2,2.4c-0.7,18.7-1.3,37.4-2,56.1
		c3.7,4.5,9.8,4.9,13.9,8c8.9,4.5,18,9,25.1,16.1C1560,1435.1,1565.4,1453.3,1562.3,1474z M1543,1418c6,0,12-2,18-1
		C1555,1416,1549,1418,1543,1418z M1541.6,1293.7c-21.3,11.6-44.3,18.1-68,22.1c-12.2,2.1-24.5,3.4-36.8,4.1
		c-21.1,1.2-41-4.3-60.1-12.7c-21.7-9.6-42-21.5-60.2-36.8c-12.5-10.5-25.3-20.8-37.5-31.6c-17-15-30.9-32.7-43.3-51.7
		c-3.5-3.9-1.5-8.2-0.7-12.3c6.3-29.5-4.3-50.4-31.8-62.9c-2.3-1-4.7-2-5.8-4.5c-10.5-35.2-17.3-71.2-24-107.3
		c-0.8-4.2-1.4-8.4-0.9-12.5c1.2-0.4,1.8-0.9,2.5-0.9c22.9,1.2,44.7-4,66.4-10.3c7.9-2.3,15.8-4.7,25.3-7.6c-4,4.4-6.9,7.6-9.7,10.8
		c-1.2,1.4-2.2,2.9-2.9,4.6c-0.9,1.9,0,3.5,1.5,4.8c1.6,1.3,3.4,1.6,4.9,0.2c1.9-1.7,3.6-3.6,5.3-5.5c10.7-11.8,24.2-18.5,39.8-20.6
		c12.7-1.7,24.6,0.5,34.6,9.3c1.1,1,2.2,2,3.4,2.6c1.7,0.9,3.5,0.7,5-0.8c1.4-1.5,1.7-3.3,0.8-5c-0.8-1.6-2-3-3.3-4.2
		c-7.3-6.4-15.9-9.9-25.5-11.2c-2.8-0.4-5.6-0.5-8.6-0.7c1.7-3.9,5.4-4.1,8.1-5.3c42.1-18,82.8-38.9,122.2-62
		c36.4-21.3,71.7-44.2,104.5-70.8c7.3-5.9,14.3-12.3,21.5-18.4c1.6-1.4,3.3-2.7,5.2-4.3c0.9,2.2,1.7,3.8,2.3,5.5
		c3.8,10.2,7.4,20.5,11.4,30.6c7,17.8,17,33.7,29.7,47.9c10.2,11.4,20.9,22.2,32.1,32.6c14.4,13.5,30.8,24.3,48.6,32.7
		c5,2.4,6.7,5.4,7.4,10.7c5.1,39.6,4.2,79-1.4,118.4c-1.2,8.3-2.2,16.6-3.3,24.8c-1.8,2.3,0.3,5.4-1.5,7.8
		c-3.6,4.6-9.2,6.8-13.1,11.1c-12.9,14-14.9,30.5-11.8,48.4c0.6,3.5,3.8,7.6-1.4,10.5c-11.7,19.8-26.6,37.1-42.5,53.7
		C1604.1,1254.1,1574.4,1275.8,1541.6,1293.7z M1745.4,1486.4c-0.2,0.3-1.3,0.2-1.7,0c-1.7-1.2-3.1-2.6-3.9-4.7
		c-0.3-0.6-0.3-1.1-0.1-1.7c-2.1-1-3.8-2.3-4.4-4.8c-1.6-1.5-3.3-2.8-4.7-4.5c-19.7-22.9-44.7-38-72-49.6
		c-17.5-7.4-33.8-16.6-48.7-28.4c-6.6-5.2-13.2-10.2-20.1-15c-5.2-3.7-9-8.3-11.8-13.9c-7.3-14.4-9.1-29.7-7.8-45.5
		c0.1-1,0.7-2.1,1.3-2.9c0.3-0.5,1.3-0.9,1.8-0.9c0.5,0.1,1.2,0.9,1.2,1.5c0.1,2.2-0.1,4.4,0,6.5c0.6,10.2,1.5,20.2,5.2,29.9
		c3.5,9.1,8.4,16.6,16.9,22c7.9,5.1,15.3,11,22.8,16.7c11.9,9.1,24.8,16.3,38.7,22c15.1,6.2,29.6,13.8,43.3,22.8
		c12.6,8.3,23.2,18.6,32.1,30.7c1.9,2.6,3.9,5.3,4.7,8.5c1.5-0.2,1.6,0.9,1.9,1.9c0,0,0,0,0,0c0.7,0.8,1.4,1.6,2.2,2.4c0,0,0,0,0,0
		c1.1,1.7,2.3,3.4,3.3,5.1C1745.8,1485,1745.7,1485.9,1745.4,1486.4z M1850.9,1510.9c-0.1,0.5-0.8,0.7-1.1,0.3
		c-2.1-2.5-2.5-5.1-2.7-7.8c-1.5-5.1-3-10.2-4.5-15.3c-0.5-0.5-0.6-1.1-0.5-1.7c-3.4-6.7-6.9-13.5-10.3-20.2c-1.4-1.9-3-3.6-3.4-6
		c-1.8-1.1-2.8-2.8-3.5-4.7c-3-2.3-5.2-5.2-6.7-8.7c-0.9-0.4-1.6-1-1.6-2.2c-0.5-0.6-0.9-1.2-1.4-1.8c-0.8-0.8-1.6-1.7-2.5-2.5
		c-3.5-1.7-6.4-4.4-8.4-7.7l-1.4-2.2c-1.1-0.6-2.2-1.2-2.5-2.6c-1.7-0.3-2.8-1.5-3.8-2.7c-3.7-1.3-6.3-4-9.1-6.6
		c-1.8-0.8-3.6-1.7-4.4-3.6c-0.7-0.5-1.3-0.9-2-1.4c-3.2-1.5-6.3-3.1-8.5-6c-2,0.1-3.2-1.3-4.4-2.5c0,0,0,0,0,0c0,0,0,0,0,0
		c-1.9,0-3.1-1.4-4.5-2.4c0,0,0,0,0,0c0,0,0,0,0,0c-2.8-1.4-5.6-2.7-8.4-4.1c-2.5-0.8-5.4-1.1-7.1-3.6c-0.6,0-1.2-0.1-1.7-0.5
		c-2.6,0.5-4.5-1.4-6.7-2.2c-3.2-1-6.7-1.5-9.3-3.9c-1.6-0.1-3.3-0.1-4.1-1.9c-1.3-0.3-2.5-0.6-3.8-0.9c-3.4-0.8-6.9-1.2-9.5-3.9
		c-0.5,0.1-0.9,0-1.3-0.3c-3.7-0.2-7-1.4-9.5-4.3c-0.7-0.1-1.7-0.1-1.9-0.4c-0.8-1.3,0.3-1.6,1.3-1.7c2.2-0.3,4.1,0.3,5.7,1.8
		c1.5,0.3,3.2,0.2,3.9,2c0,0,0,0,0,0c1.4,0.4,2.8,0.8,4.3,1.2c0,0,0,0,0,0c0,0,0,0,0,0c3,1.1,6.5,1.1,8.9,3.7c0.7-0.1,1.4,0.1,2,0.6
		c2.2,0.8,4.4,1.5,6.6,2.3c2.3,0.9,5,1,6.9,2.9c2.3,0.5,4.8,0.4,6.2,2.8c0.7,0.2,1.4,0.3,2.1,0.5c0,0,0,0,0,0h0
		c3.3,0.5,6.4,1.5,8.8,4c2.6,0.7,5,1.7,6.7,3.9c1.7,0.3,3.5,0.5,4.2,2.5c3.2,0.2,5.4,2,7.2,4.3c2.7,0.3,4.6,1.8,6.1,3.9
		c0.8-0.1,1.4,0.2,1.9,0.8c2.1,0.2,3.5,1.4,4.5,3.2c0,0,0,0,0,0c0.7,0.4,1.4,0.8,2,1.3c0,0,0,0,0,0c0,0,0,0,0,0
		c3.4,1.3,6.3,3.4,8.4,6.4c0.7,0.7,1.4,1.5,2.1,2.2l0.5,0.4c1.2,0,1.7,0.7,2,1.7c5.4,3.4,9.9,7.7,13.2,13.2c1,0.4,1.8,1.1,1.8,2.3
		c1.8,0.9,2.8,2.4,3.7,4.1c2.5,1.7,4.2,3.9,5.1,6.7c1.8,1.9,3.6,3.8,4.2,6.5c1.4,1,2.4,2.3,2.8,4.1c5,5.9,8.4,12.6,10.5,19.9
		c0.5,0.5,0.6,1.1,0.5,1.7c2,1.4,2.4,3.3,2.2,5.5c-0.1,0.5,0,0.9,0.2,1.4c-0.1-0.4-0.2-0.9-0.2-1.4c1.1,0.9,1.7,2.1,1.6,3.5
		c0.2,1.1,0.4,2.3,0.6,3.4c0,0,0,0,0,0C1851.2,1502,1851.7,1506,1850.9,1510.9z M1900.9,1310.1c-2.5-5.9-3.2-12.1-3.6-18.3
		c-0.2-1.9-0.5-3.9-0.7-5.8c-2.2-3.6-2.1-7.6-1.6-11.6c-0.2-3.4-0.3-6.8-0.5-10.2c0,0,0,0,0,0c-1.8-7-1.8-14,0-20.9
		c-0.5-16.1,2.2-31.8,5.5-47.5c2.9-13.8,6.4-27.6,10.1-41.2c4.3-16.2,6.8-32.7,7.8-49.4c0.9-14.2-1.3-28.2-4.6-42.1
		c-5.9-24.5-15.2-47.6-27.6-69.6c-3.9-3.7-6.2-8.5-8.6-13.2c-2.9-2.4-4.4-5.8-5.6-9.3c-0.3-0.7-0.6-1.4-0.8-2
		c-0.3-0.2-0.7-0.2-0.9-0.5c-0.8-1-1.8-2.2-0.3-3.3c0.3-0.2,1.7,0.6,2.2,1.1c0.7,0.7,1,1.7,1.5,2.5c0,0,0,0,0,0h0
		c2.5,2.7,4.9,5.4,6.5,8.8c3.5,4,7.2,7.9,9.1,13c3.8,4,6.5,8.6,9.1,13.4c13.3,24.3,22.3,50.1,26.3,77.7c2.3,16,0.6,31.8-1.6,47.6
		c-1.5,10.4-3.9,20.6-6.9,30.7c-7.8,26-13.7,52.5-16.5,79.6c0,12.4,0,24.8-0.1,37.2c0.2,2,0.4,4,0.6,5.9c2.5,6.5,3.5,13.3,3.9,20.2
		c0.2,1.2,0.4,2.3,0.6,3.5c1.5,1.5,1.8,3.3,1.3,5.2c5.1,22.7,14.2,44,23.6,65.1c6.2,14,9.8,28.7,10.3,44.1c0.2,5.8,0.2,11.6-1,17.3
		c0.5,2.7,0.3,5.2-1.5,7.4c-0.2,1.2-0.5,2.3-0.7,3.5c0.4,2,0.1,3.7-1.5,5.1c0.2,0.6,0.1,1.1-0.4,1.4c-2.7,10.6-5.3,21.3-8.1,31.9
		c-0.7,2.7-0.3,5.7-2.4,8c-0.2,1.9-0.4,3.8-0.6,5.7c0,1.5-0.1,2.9-0.1,4.4c0.4,3-1.3,5-2.8,7.5c-1.4-2-1.3-3.6-0.9-5.3
		c-0.2-3.8-1.2-7.7,1.4-11.1c0.2-1.3,0.5-2.6,0.7-3.9c1.1-12.8,4.6-25,8.6-37.1c-0.2-2.5,0.3-4.8,1.9-6.9c-0.2-0.7-0.1-1.3,0.3-1.9
		c-0.4-3.3,0-6.5,1.7-9.4c0.6-13.8-0.1-27.5-3.8-41c-1.6-6-3.8-11.7-6.2-17.4c-6.2-14.7-13-29.2-17.4-44.6
		C1904.1,1326.4,1901.3,1318.5,1900.9,1310.1z M1942.2,1735.1c-3.5,9.1-6.6,18.4-8.4,28c0.2,8.7,0.5,17.5,0.7,26.2
		c1.5,1.3,1.9,3,1.8,4.9c-0.1,1-0.2,2.2-1.5,2.3c-0.5,0-1.5-0.6-1.7-1.1c-0.5-1.3-0.7-2.7-1-4.1c-0.2-3-3.2-5.3-2.1-8.6
		c-2.7-13.1-1.2-25.9,2.6-38.6c1.1-3.8,2.3-7.6,3.5-11.4c3.7-11.4,3.3-22.9-0.4-34.2c-1.9-5.8-4.2-11.6-6.9-17.1
		c-4.3-8.8-7.8-17.9-11.3-27c-3.8-10.1-5-20.3-2.9-30.9c0.8-11.7,2.5-23.3,4.5-34.9c-0.1-2.6-1.1-5.3,1.5-7.3
		c1.6,2.3,1.4,4.8,0.6,7.2c0.9,7.5,0.6,15.1-0.6,22.5c-1.6,10-1.9,19.9-1.9,29.9c5,13.6,10.3,27,17.4,39.7
		c4.3,7.6,7.3,15.8,8.7,24.4C1946.4,1715.3,1945.9,1725.3,1942.2,1735.1z M947.6,2121.5c-0.1,5.8-0.2,11.6-0.7,17.4
		c-1.3,15.2-1.4,30.5-1.4,45.8c0,3.2,0.4,6.6-1.2,9.6c-6,3.2-12.6,3.2-19,4.3c-10,1.8-20,3.5-30.3,3.3c-7.6-0.2-14.1-2.5-20.1-7.2
		c-8.9-6.9-15-15.8-18.7-26.3c-3.7-10.4-1.5-20.1,5.6-28.5c6.5-7.6,14.8-13.1,24-16.5c17.8-6.7,36.3-10.4,55.5-9.1
		C947.7,2114.8,947.7,2114.7,947.6,2121.5z M953.9,1993.6c-3.1,29.3-3.4,58.7-3.9,88.1c-0.2,7.9-0.1,15.9-2,23.3
		c-3.8,1.4-7.1,0.6-10.3,0.4c-18.8-1.2-36.9,2.4-54.4,9c-10,3.7-18.6,9.6-26.3,17c-12,11.5-14.7,31.4-8.1,44.2
		c4,7.8,8.4,15.2,14.5,21.6c1.2,1.2,3.1,2,2.9,4.5c-8.1,0.6-15.6-2.5-23.3-3.9c-7.3-1.3-13.7-4.6-19.7-8.7
		c-8.4-5.7-13.6-13.2-16.1-23.5c-5.6-22.8-1.5-43.9,8.7-64.3c4.9-9.8,11.2-18.7,18.5-26.8c2.7-3,5.3-6,8.1-8.8
		c20.9-20.8,43.5-39.6,67.4-56.7c11.6-8.3,24.3-14.4,37.5-19.6c2-0.8,4-1.8,6.7-1C954,1990,954.1,1991.8,953.9,1993.6z M1954.4,2227
		c-1.9,0.7-4.3,0.8-6.4,0.5c-14.1-1.6-28.1-3.3-42.1-5.1c-1.4-0.2-2.8-0.8-4.9-1.3c0.5-25.9,1.7-50.9,1-76c2.1-0.5,3.8-1.2,5.6-1.3
		c20-1.9,39.1,1.2,57,10.2c6.5,3.3,12.3,7.7,17.1,13.3c10.1,12,10.7,26.5,1.5,39C1975.9,2216.4,1965.7,2222.6,1954.4,2227z
		 M2026,2212.7c-14.6,12.1-31.2,18.1-50.3,16.7c-0.2,0-0.4-0.5-0.7-0.7c-0.5-2.4,1.6-2.9,2.9-3.9c5.2-4,9.9-8.6,13.6-14
		c10.6-15.5,10.2-32.6-1.2-47.6c-6.1-8-13.9-13.8-22.8-18.2c-13.9-6.9-28.6-10.3-44.1-10.8c-6.8-0.2-13.7,0-21.3,0
		c-0.5-38.1-0.7-75.8-3.4-113c2.8-2.5,4.6-0.5,6.3,0.3c31.3,15,60.1,33.9,85.3,57.9c13.8,13.1,26.1,27.3,35.9,43.6
		c7.6,12.5,13.4,25.8,15.8,40.3c1.7,10.2,1.1,20.3-2.6,30C2036.7,2200.9,2032.3,2207.5,2026,2212.7z"/>
	<path class="st9" d="M1238.5,1145.7c-4.9-18.5-15.4-31.8-34.5-37c-2.1-0.6-4.1-1.3-6.2-1.9c-2.9,2.2-6.3,1.5-9.5,1.4
		c-13.4,0-23.7,5.4-30.3,17.3c0,3.9-2.9,6.5-4.6,9.7c-7.4,13.9-10.2,28.4-6.8,44.1c3.1,14.2,10.5,25.2,22.2,33.6
		c1.5,1.2,3.1,2,4.6,3.1c2,1.1,3.9,3,6.5,1.4c4.6,0.2,9.1,1.5,13.9,0.9c15.8-2,27.3-10.3,36.1-23c2-2.9,2.8-6.7,6.2-8.6
		c-0.3-3.3,0.8-6.4,1.7-9.6C1240.7,1166.5,1241.2,1156.1,1238.5,1145.7z M1211.6,1195.8c-3.6,3.2-7.8,5.3-12.5,6.2
		c-2.1,0.4-4.3,0.5-4.4,0.5c-11,0.4-18.4-2.9-24.5-9.2c-13.7-13.9-17.1-38.5-4-57c0.6-0.8,1.6-1.3,2.5-1.9c0.3-0.2,0.9-0.3,1-0.2
		c0.4,0.5,1.2,1.3,1,1.6c-1.2,2.6-2.6,5.1-3.8,7.7c-6.3,13-6.2,25.9,0.5,38.6c7.9,15,25.3,21.3,39.4,11.8c0.9-0.6,1.9-1.1,2.9-1.4
		c0.6-0.2,1.5,0,1.9,0.4C1212.4,1193.8,1212.5,1194.9,1211.6,1195.8z M1219.4,1187.7c-0.5,0.1-1.4-0.4-1.6-0.8
		c-0.7-1.2,0.8-3.5,2.2-3.8c1.2,0.2,2,1,2,2C1221.9,1186.5,1220.7,1187.4,1219.4,1187.7z M1747.1,1116.8c-1.3-2.2-3-4.2-2.9-6.9
		c-1.2-0.7-2.6-1.3-3.7-2.2c-8.7-7.9-18.9-11.1-30.5-10.5c-1.6,0.8-3.2,1.5-4.9,2.3c-1.8,1.6-4.5-0.2-6.3,1.6
		c-23.9,13.1-33.9,36.9-26.6,63.1c0.8,2.8,1.7,5.4,0.7,8.3c3.4,0.4,4.4,3.3,6.1,5.5c5.9,7.7,13.8,12.3,23.2,14.1
		c3.1,0.6,6.4,0.6,9.6,0.9c1.7,1.6,3.2-0.2,4.8-0.3c1.6-0.8,3.2-1.6,4.9-2.3C1750.7,1179.3,1762.1,1141.8,1747.1,1116.8z
		 M1709.6,1177.8c-4.2,0.5-7.8-1.4-10.9-3.8c-5.3-3.9-9.5-8.8-11-15.5c-5.7-11.2-4.1-22.4,0.7-33.3c2.3-5.4,6.5-9.5,11.8-12.3
		c1.6-0.9,3.4-1.3,5.2-0.9c0.5,0.1,1,0.8,1.3,1.3c0.1,0.2,0.1,0.8-0.1,1c-0.8,0.7-1.6,1.5-2.5,2c-12.2,5.9-14.9,16.6-14.9,28.8
		c0,2.9,0.5,5.7,0.8,8.6c0.5,1,1,1.9,1.4,2.9c3.5,8.9,9.2,15.3,18.9,17.5c0.6,0.1,1,1.7,1.2,2.7
		C1711.5,1177.1,1710.3,1177.7,1709.6,1177.8z M1730.6,1168.3c-0.5,1.4-1.5,2.4-3,2.6c-1.7,0.2-3-1.9-2.4-3.7
		c0.5-1.5,1.5-2.3,3.2-1.9C1729.7,1165.5,1730.8,1167.1,1730.6,1168.3z"/>
</g>
</svg>
